<svg xmlns="http://www.w3.org/2000/svg" width="800" height="540" viewBox="0 0 800 540" font-family="'Martian Mono', 'SF Mono', Menlo, ui-monospace, monospace">
<rect width="800" height="540" fill="#fbf9f5"/>
<text x="28" y="46" font-size="27" font-weight="600" fill="#2a1d17">curve3_left</text>
<text x="28" y="76" font-size="16" fill="#6f5a4e" font-family="Saira, system-ui, -apple-system, Helvetica, sans-serif">3 × 3 cellules · 137 m · rayon 43 m à l'apex</text>
<polygon points="286.3,488.0 28.0,245.1 513.7,116.0 772.0,358.9" fill="#ece4d8"/>
<polygon points="314.7,441.5 250.1,380.8 371.6,348.5 436.1,409.2" fill="#dfd1bd"/>
<polygon points="250.1,380.8 185.6,320.1 307.0,287.8 371.6,348.5" fill="#dfd1bd"/>
<polygon points="185.6,320.1 121.0,259.4 242.4,227.1 307.0,287.8" fill="#dfd1bd"/>
<polygon points="436.1,409.2 371.6,348.5 493.0,316.2 557.6,376.9" fill="#dfd1bd"/>
<polygon points="371.6,348.5 307.0,287.8 428.4,255.5 493.0,316.2" fill="#dfd1bd"/>
<polygon points="307.0,287.8 242.4,227.1 363.9,194.8 428.4,255.5" fill="#dfd1bd"/>
<polygon points="557.6,376.9 493.0,316.2 614.4,283.9 679.0,344.6" fill="#dfd1bd"/>
<polygon points="493.0,316.2 428.4,255.5 549.9,223.2 614.4,283.9" fill="#dfd1bd"/>
<polygon points="428.4,255.5 363.9,194.8 485.3,162.5 549.9,223.2" fill="#dfd1bd"/>
<line x1="254.0" y1="457.6" x2="739.7" y2="328.5" stroke="#c9b7a1" stroke-width="1.2"/>
<line x1="189.4" y1="396.9" x2="675.1" y2="267.8" stroke="#c9b7a1" stroke-width="1.2"/>
<line x1="124.9" y1="336.2" x2="610.6" y2="207.1" stroke="#c9b7a1" stroke-width="1.2"/>
<line x1="60.3" y1="275.5" x2="546.0" y2="146.4" stroke="#c9b7a1" stroke-width="1.2"/>
<line x1="347.0" y1="471.9" x2="88.7" y2="229.0" stroke="#c9b7a1" stroke-width="1.2"/>
<line x1="468.4" y1="439.6" x2="210.1" y2="196.7" stroke="#c9b7a1" stroke-width="1.2"/>
<line x1="589.9" y1="407.3" x2="331.6" y2="164.4" stroke="#c9b7a1" stroke-width="1.2"/>
<line x1="711.3" y1="375.0" x2="453.0" y2="132.1" stroke="#c9b7a1" stroke-width="1.2"/>
<polygon points="262.2,392.2 322.2,376.1 350.7,367.9 364.2,363.7 377.2,359.4 389.5,354.9 395.4,352.6 401.1,350.2 406.6,347.8 411.9,345.3 416.9,342.8 421.8,340.2 426.3,337.6 430.7,334.9 434.7,332.1 438.6,329.3 442.1,326.5 445.4,323.5 448.4,320.5 451.1,317.5 453.5,314.4 455.7,311.3 457.5,308.1 459.1,304.9 460.4,301.6 461.4,298.3 462.0,295.0 462.4,291.6 462.6,288.2 462.4,284.8 461.9,281.4 461.2,277.9 460.2,274.4 459.0,270.9 457.5,267.4 455.7,263.9 453.7,260.4 451.5,256.8 446.5,249.7 440.7,242.5 434.3,235.2 420.0,220.5 404.5,205.6 386.6,188.7 462.5,168.6 480.5,185.5 496.7,201.0 512.4,217.3 519.9,225.7 526.9,234.5 533.3,243.6 536.2,248.2 538.8,252.9 541.2,257.8 543.3,262.7 545.1,267.6 546.5,272.6 547.6,277.7 548.3,282.9 548.5,288.0 548.3,293.3 547.7,298.5 546.6,303.7 545.1,308.9 543.1,314.1 540.6,319.2 537.6,324.3 534.2,329.3 530.3,334.2 526.0,339.0 521.3,343.7 516.2,348.3 510.7,352.7 504.9,357.0 498.7,361.1 492.3,365.1 485.6,369.0 478.7,372.7 471.6,376.3 464.3,379.7 456.9,382.9 449.4,386.0 441.7,389.0 426.3,394.7 410.6,399.9 395.0,404.7 363.8,413.7 302.6,430.1" fill="#2a1d17" fill-opacity="0.10"/>
<polygon points="461.5,190.5 443.6,173.6 462.5,168.6 480.5,185.5" fill="#92bfde" stroke="#92bfde" stroke-width="0.8" stroke-linejoin="round"/>
<line x1="461.5" y1="190.5" x2="480.5" y2="185.5" stroke="#4f7fa6" stroke-width="1.1"/>
<line x1="445.4" y1="175.3" x2="464.3" y2="170.2" stroke="#4f7fa6" stroke-width="1.1"/>
<line x1="480.5" y1="185.5" x2="462.5" y2="168.6" stroke="#a38659" stroke-width="4.5" stroke-linecap="round"/>
<polygon points="442.5,195.5 424.6,178.6 443.6,173.6 461.5,190.5" fill="#92bfde" stroke="#92bfde" stroke-width="0.8" stroke-linejoin="round"/>
<line x1="442.5" y1="195.5" x2="461.5" y2="190.5" stroke="#4f7fa6" stroke-width="1.1"/>
<line x1="426.4" y1="180.3" x2="445.4" y2="175.3" stroke="#4f7fa6" stroke-width="1.1"/>
<polygon points="423.5,200.5 405.6,183.7 424.6,178.6 442.5,195.5" fill="#92bfde" stroke="#92bfde" stroke-width="0.8" stroke-linejoin="round"/>
<line x1="423.5" y1="200.5" x2="442.5" y2="195.5" stroke="#4f7fa6" stroke-width="1.1"/>
<line x1="407.4" y1="185.4" x2="426.4" y2="180.3" stroke="#4f7fa6" stroke-width="1.1"/>
<line x1="442.5" y1="195.5" x2="434.4" y2="187.9" stroke="#e2690f" stroke-width="1.6"/>
<line x1="426.4" y1="180.3" x2="424.6" y2="178.6" stroke="#e2690f" stroke-width="1.6"/>
<polygon points="404.5,205.6 386.6,188.7 405.6,183.7 423.5,200.5" fill="#92bfde" stroke="#92bfde" stroke-width="0.8" stroke-linejoin="round"/>
<line x1="404.5" y1="205.6" x2="423.5" y2="200.5" stroke="#4f7fa6" stroke-width="1.1"/>
<line x1="388.4" y1="190.4" x2="407.4" y2="185.4" stroke="#4f7fa6" stroke-width="1.1"/>
<line x1="404.5" y1="205.6" x2="386.6" y2="188.7" stroke="#a38659" stroke-width="4.5" stroke-linecap="round"/>
<polygon points="477.5,205.9 461.5,190.5 480.5,185.5 496.7,201.0" fill="#92bfde" stroke="#92bfde" stroke-width="0.8" stroke-linejoin="round"/>
<line x1="477.5" y1="205.9" x2="496.7" y2="201.0" stroke="#4f7fa6" stroke-width="1.1"/>
<line x1="496.7" y1="201.0" x2="480.5" y2="185.5" stroke="#a38659" stroke-width="4.5" stroke-linecap="round"/>
<polygon points="458.4,210.8 442.5,195.5 461.5,190.5 477.5,205.9" fill="#92bfde" stroke="#92bfde" stroke-width="0.8" stroke-linejoin="round"/>
<line x1="458.4" y1="210.8" x2="477.5" y2="205.9" stroke="#4f7fa6" stroke-width="1.1"/>
<polygon points="439.2,215.6 423.5,200.5 442.5,195.5 458.4,210.8" fill="#92bfde" stroke="#92bfde" stroke-width="0.8" stroke-linejoin="round"/>
<line x1="439.2" y1="215.6" x2="458.4" y2="210.8" stroke="#4f7fa6" stroke-width="1.1"/>
<line x1="458.4" y1="210.8" x2="450.4" y2="203.1" stroke="#e2690f" stroke-width="1.6"/>
<polygon points="420.0,220.5 404.5,205.6 423.5,200.5 439.2,215.6" fill="#92bfde" stroke="#92bfde" stroke-width="0.8" stroke-linejoin="round"/>
<line x1="420.0" y1="220.5" x2="439.2" y2="215.6" stroke="#4f7fa6" stroke-width="1.1"/>
<line x1="420.0" y1="220.5" x2="404.5" y2="205.6" stroke="#a38659" stroke-width="4.5" stroke-linecap="round"/>
<polygon points="492.9,221.7 477.5,205.9 496.7,201.0 512.4,217.3" fill="#92bfde" stroke="#92bfde" stroke-width="0.8" stroke-linejoin="round"/>
<line x1="492.9" y1="221.7" x2="512.4" y2="217.3" stroke="#4f7fa6" stroke-width="1.1"/>
<line x1="512.4" y1="217.3" x2="496.7" y2="201.0" stroke="#a38659" stroke-width="4.5" stroke-linecap="round"/>
<polygon points="473.4,226.2 458.4,210.8 477.5,205.9 492.9,221.7" fill="#92bfde" stroke="#92bfde" stroke-width="0.8" stroke-linejoin="round"/>
<line x1="473.4" y1="226.2" x2="492.9" y2="221.7" stroke="#4f7fa6" stroke-width="1.1"/>
<polygon points="453.9,230.7 439.2,215.6 458.4,210.8 473.4,226.2" fill="#92bfde" stroke="#92bfde" stroke-width="0.8" stroke-linejoin="round"/>
<line x1="453.9" y1="230.7" x2="473.4" y2="226.2" stroke="#4f7fa6" stroke-width="1.1"/>
<line x1="473.4" y1="226.2" x2="465.9" y2="218.5" stroke="#e2690f" stroke-width="1.6"/>
<polygon points="500.1,229.9 492.9,221.7 512.4,217.3 519.9,225.7" fill="#92bfde" stroke="#92bfde" stroke-width="0.8" stroke-linejoin="round"/>
<line x1="519.9" y1="225.7" x2="512.4" y2="217.3" stroke="#a38659" stroke-width="4.5" stroke-linecap="round"/>
<polygon points="434.3,235.2 420.0,220.5 439.2,215.6 453.9,230.7" fill="#92bfde" stroke="#92bfde" stroke-width="0.8" stroke-linejoin="round"/>
<line x1="434.3" y1="235.2" x2="453.9" y2="230.7" stroke="#4f7fa6" stroke-width="1.1"/>
<line x1="434.3" y1="235.2" x2="420.0" y2="220.5" stroke="#a38659" stroke-width="4.5" stroke-linecap="round"/>
<polygon points="480.3,234.1 473.4,226.2 492.9,221.7 500.1,229.9" fill="#92bfde" stroke="#92bfde" stroke-width="0.8" stroke-linejoin="round"/>
<polygon points="506.8,238.3 500.1,229.9 519.9,225.7 526.9,234.5" fill="#92bfde" stroke="#92bfde" stroke-width="0.8" stroke-linejoin="round"/>
<line x1="506.8" y1="238.3" x2="526.9" y2="234.5" stroke="#4f7fa6" stroke-width="1.1"/>
<line x1="526.9" y1="234.5" x2="519.9" y2="225.7" stroke="#a38659" stroke-width="4.5" stroke-linecap="round"/>
<polygon points="460.5,238.3 453.9,230.7 473.4,226.2 480.3,234.1" fill="#92bfde" stroke="#92bfde" stroke-width="0.8" stroke-linejoin="round"/>
<polygon points="486.7,242.1 480.3,234.1 500.1,229.9 506.8,238.3" fill="#92bfde" stroke="#92bfde" stroke-width="0.8" stroke-linejoin="round"/>
<line x1="486.7" y1="242.1" x2="506.8" y2="238.3" stroke="#4f7fa6" stroke-width="1.1"/>
<polygon points="440.7,242.5 434.3,235.2 453.9,230.7 460.5,238.3" fill="#92bfde" stroke="#92bfde" stroke-width="0.8" stroke-linejoin="round"/>
<line x1="440.7" y1="242.5" x2="434.3" y2="235.2" stroke="#a38659" stroke-width="4.5" stroke-linecap="round"/>
<polygon points="466.6,245.9 460.5,238.3 480.3,234.1 486.7,242.1" fill="#92bfde" stroke="#92bfde" stroke-width="0.8" stroke-linejoin="round"/>
<line x1="466.6" y1="245.9" x2="486.7" y2="242.1" stroke="#4f7fa6" stroke-width="1.1"/>
<line x1="486.7" y1="242.1" x2="480.3" y2="234.1" stroke="#e2690f" stroke-width="1.6"/>
<polygon points="512.9,246.9 506.8,238.3 526.9,234.5 533.3,243.6" fill="#92bfde" stroke="#92bfde" stroke-width="0.8" stroke-linejoin="round"/>
<line x1="533.3" y1="243.6" x2="526.9" y2="234.5" stroke="#a38659" stroke-width="4.5" stroke-linecap="round"/>
<polygon points="446.5,249.7 440.7,242.5 460.5,238.3 466.6,245.9" fill="#92bfde" stroke="#92bfde" stroke-width="0.8" stroke-linejoin="round"/>
<line x1="446.5" y1="249.7" x2="466.6" y2="245.9" stroke="#4f7fa6" stroke-width="1.1"/>
<line x1="446.5" y1="249.7" x2="440.7" y2="242.5" stroke="#a38659" stroke-width="4.5" stroke-linecap="round"/>
<polygon points="492.4,250.2 486.7,242.1 506.8,238.3 512.9,246.9" fill="#92bfde" stroke="#92bfde" stroke-width="0.8" stroke-linejoin="round"/>
<polygon points="515.6,251.2 512.9,246.9 533.3,243.6 536.2,248.2" fill="#92bfde" stroke="#92bfde" stroke-width="0.8" stroke-linejoin="round"/>
<line x1="536.2" y1="248.2" x2="533.3" y2="243.6" stroke="#a38659" stroke-width="4.5" stroke-linecap="round"/>
<polygon points="472.0,253.5 466.6,245.9 486.7,242.1 492.4,250.2" fill="#92bfde" stroke="#92bfde" stroke-width="0.8" stroke-linejoin="round"/>
<polygon points="495.0,254.3 492.4,250.2 512.9,246.9 515.6,251.2" fill="#92bfde" stroke="#92bfde" stroke-width="0.8" stroke-linejoin="round"/>
<polygon points="451.5,256.8 446.5,249.7 466.6,245.9 472.0,253.5" fill="#92bfde" stroke="#92bfde" stroke-width="0.8" stroke-linejoin="round"/>
<line x1="451.5" y1="256.8" x2="446.5" y2="249.7" stroke="#a38659" stroke-width="4.5" stroke-linecap="round"/>
<polygon points="518.1,255.7 515.6,251.2 536.2,248.2 538.8,252.9" fill="#92bfde" stroke="#92bfde" stroke-width="0.8" stroke-linejoin="round"/>
<line x1="518.1" y1="255.7" x2="538.8" y2="252.9" stroke="#4f7fa6" stroke-width="1.1"/>
<line x1="538.8" y1="252.9" x2="536.2" y2="248.2" stroke="#a38659" stroke-width="4.5" stroke-linecap="round"/>
<polygon points="474.4,257.3 472.0,253.5 492.4,250.2 495.0,254.3" fill="#92bfde" stroke="#92bfde" stroke-width="0.8" stroke-linejoin="round"/>
<line x1="495.0" y1="254.3" x2="492.4" y2="250.2" stroke="#e2690f" stroke-width="1.6"/>
<polygon points="497.3,258.4 495.0,254.3 515.6,251.2 518.1,255.7" fill="#92bfde" stroke="#92bfde" stroke-width="0.8" stroke-linejoin="round"/>
<line x1="497.3" y1="258.4" x2="518.1" y2="255.7" stroke="#4f7fa6" stroke-width="1.1"/>
<polygon points="520.3,260.2 518.1,255.7 538.8,252.9 541.2,257.8" fill="#92bfde" stroke="#92bfde" stroke-width="0.8" stroke-linejoin="round"/>
<line x1="541.2" y1="257.8" x2="538.8" y2="252.9" stroke="#a38659" stroke-width="4.5" stroke-linecap="round"/>
<polygon points="453.7,260.4 451.5,256.8 472.0,253.5 474.4,257.3" fill="#92bfde" stroke="#92bfde" stroke-width="0.8" stroke-linejoin="round"/>
<line x1="453.7" y1="260.4" x2="451.5" y2="256.8" stroke="#a38659" stroke-width="4.5" stroke-linecap="round"/>
<polygon points="476.5,261.2 474.4,257.3 495.0,254.3 497.3,258.4" fill="#92bfde" stroke="#92bfde" stroke-width="0.8" stroke-linejoin="round"/>
<line x1="476.5" y1="261.2" x2="497.3" y2="258.4" stroke="#4f7fa6" stroke-width="1.1"/>
<line x1="497.3" y1="258.4" x2="495.0" y2="254.3" stroke="#e2690f" stroke-width="1.6"/>
<polygon points="499.3,262.6 497.3,258.4 518.1,255.7 520.3,260.2" fill="#92bfde" stroke="#92bfde" stroke-width="0.8" stroke-linejoin="round"/>
<polygon points="455.7,263.9 453.7,260.4 474.4,257.3 476.5,261.2" fill="#92bfde" stroke="#92bfde" stroke-width="0.8" stroke-linejoin="round"/>
<line x1="455.7" y1="263.9" x2="476.5" y2="261.2" stroke="#4f7fa6" stroke-width="1.1"/>
<line x1="455.7" y1="263.9" x2="453.7" y2="260.4" stroke="#a38659" stroke-width="4.5" stroke-linecap="round"/>
<polygon points="522.2,264.7 520.3,260.2 541.2,257.8 543.3,262.7" fill="#92bfde" stroke="#92bfde" stroke-width="0.8" stroke-linejoin="round"/>
<line x1="543.3" y1="262.7" x2="541.2" y2="257.8" stroke="#a38659" stroke-width="4.5" stroke-linecap="round"/>
<polygon points="478.4,265.0 476.5,261.2 497.3,258.4 499.3,262.6" fill="#92bfde" stroke="#92bfde" stroke-width="0.8" stroke-linejoin="round"/>
<polygon points="501.1,266.8 499.3,262.6 520.3,260.2 522.2,264.7" fill="#92bfde" stroke="#92bfde" stroke-width="0.8" stroke-linejoin="round"/>
<polygon points="457.5,267.4 455.7,263.9 476.5,261.2 478.4,265.0" fill="#92bfde" stroke="#92bfde" stroke-width="0.8" stroke-linejoin="round"/>
<line x1="457.5" y1="267.4" x2="455.7" y2="263.9" stroke="#a38659" stroke-width="4.5" stroke-linecap="round"/>
<polygon points="480.1,268.9 478.4,265.0 499.3,262.6 501.1,266.8" fill="#92bfde" stroke="#92bfde" stroke-width="0.8" stroke-linejoin="round"/>
<polygon points="523.9,269.3 522.2,264.7 543.3,262.7 545.1,267.6" fill="#92bfde" stroke="#92bfde" stroke-width="0.8" stroke-linejoin="round"/>
<line x1="545.1" y1="267.6" x2="543.3" y2="262.7" stroke="#a38659" stroke-width="4.5" stroke-linecap="round"/>
<polygon points="502.7,271.0 501.1,266.8 522.2,264.7 523.9,269.3" fill="#92bfde" stroke="#92bfde" stroke-width="0.8" stroke-linejoin="round"/>
<polygon points="459.0,270.9 457.5,267.4 478.4,265.0 480.1,268.9" fill="#92bfde" stroke="#92bfde" stroke-width="0.8" stroke-linejoin="round"/>
<line x1="459.0" y1="270.9" x2="457.5" y2="267.4" stroke="#a38659" stroke-width="4.5" stroke-linecap="round"/>
<polygon points="481.4,272.7 480.1,268.9 501.1,266.8 502.7,271.0" fill="#92bfde" stroke="#92bfde" stroke-width="0.8" stroke-linejoin="round"/>
<line x1="502.7" y1="271.0" x2="501.1" y2="266.8" stroke="#e2690f" stroke-width="1.6"/>
<polygon points="525.2,274.0 523.9,269.3 545.1,267.6 546.5,272.6" fill="#92bfde" stroke="#92bfde" stroke-width="0.8" stroke-linejoin="round"/>
<line x1="525.2" y1="274.0" x2="546.5" y2="272.6" stroke="#4f7fa6" stroke-width="1.1"/>
<line x1="546.5" y1="272.6" x2="545.1" y2="267.6" stroke="#a38659" stroke-width="4.5" stroke-linecap="round"/>
<polygon points="460.2,274.4 459.0,270.9 480.1,268.9 481.4,272.7" fill="#92bfde" stroke="#92bfde" stroke-width="0.8" stroke-linejoin="round"/>
<line x1="460.2" y1="274.4" x2="459.0" y2="270.9" stroke="#a38659" stroke-width="4.5" stroke-linecap="round"/>
<polygon points="503.9,275.3 502.7,271.0 523.9,269.3 525.2,274.0" fill="#92bfde" stroke="#92bfde" stroke-width="0.8" stroke-linejoin="round"/>
<line x1="503.9" y1="275.3" x2="525.2" y2="274.0" stroke="#4f7fa6" stroke-width="1.1"/>
<polygon points="482.5,276.6 481.4,272.7 502.7,271.0 503.9,275.3" fill="#92bfde" stroke="#92bfde" stroke-width="0.8" stroke-linejoin="round"/>
<line x1="482.5" y1="276.6" x2="503.9" y2="275.3" stroke="#4f7fa6" stroke-width="1.1"/>
<line x1="503.9" y1="275.3" x2="502.7" y2="271.0" stroke="#e2690f" stroke-width="1.6"/>
<polygon points="461.2,277.9 460.2,274.4 481.4,272.7 482.5,276.6" fill="#92bfde" stroke="#92bfde" stroke-width="0.8" stroke-linejoin="round"/>
<line x1="461.2" y1="277.9" x2="482.5" y2="276.6" stroke="#4f7fa6" stroke-width="1.1"/>
<line x1="461.2" y1="277.9" x2="460.2" y2="274.4" stroke="#a38659" stroke-width="4.5" stroke-linecap="round"/>
<polygon points="526.2,278.6 525.2,274.0 546.5,272.6 547.6,277.7" fill="#92bfde" stroke="#92bfde" stroke-width="0.8" stroke-linejoin="round"/>
<line x1="547.6" y1="277.7" x2="546.5" y2="272.6" stroke="#a38659" stroke-width="4.5" stroke-linecap="round"/>
<polygon points="504.8,279.6 503.9,275.3 525.2,274.0 526.2,278.6" fill="#92bfde" stroke="#92bfde" stroke-width="0.8" stroke-linejoin="round"/>
<polygon points="483.3,280.5 482.5,276.6 503.9,275.3 504.8,279.6" fill="#92bfde" stroke="#92bfde" stroke-width="0.8" stroke-linejoin="round"/>
<polygon points="461.9,281.4 461.2,277.9 482.5,276.6 483.3,280.5" fill="#92bfde" stroke="#92bfde" stroke-width="0.8" stroke-linejoin="round"/>
<line x1="461.9" y1="281.4" x2="461.2" y2="277.9" stroke="#a38659" stroke-width="4.5" stroke-linecap="round"/>
<polygon points="526.8,283.4 526.2,278.6 547.6,277.7 548.3,282.9" fill="#92bfde" stroke="#92bfde" stroke-width="0.8" stroke-linejoin="round"/>
<line x1="548.3" y1="282.9" x2="547.6" y2="277.7" stroke="#a38659" stroke-width="4.5" stroke-linecap="round"/>
<polygon points="505.3,283.8 504.8,279.6 526.2,278.6 526.8,283.4" fill="#92bfde" stroke="#92bfde" stroke-width="0.8" stroke-linejoin="round"/>
<polygon points="483.9,284.3 483.3,280.5 504.8,279.6 505.3,283.8" fill="#92bfde" stroke="#92bfde" stroke-width="0.8" stroke-linejoin="round"/>
<polygon points="462.4,284.8 461.9,281.4 483.3,280.5 483.9,284.3" fill="#92bfde" stroke="#92bfde" stroke-width="0.8" stroke-linejoin="round"/>
<line x1="462.4" y1="284.8" x2="461.9" y2="281.4" stroke="#a38659" stroke-width="4.5" stroke-linecap="round"/>
<polygon points="527.0,288.1 526.8,283.4 548.3,282.9 548.5,288.0" fill="#92bfde" stroke="#92bfde" stroke-width="0.8" stroke-linejoin="round"/>
<line x1="548.5" y1="288.0" x2="548.3" y2="282.9" stroke="#a38659" stroke-width="4.5" stroke-linecap="round"/>
<polygon points="505.5,288.1 505.3,283.8 526.8,283.4 527.0,288.1" fill="#92bfde" stroke="#92bfde" stroke-width="0.8" stroke-linejoin="round"/>
<polygon points="484.0,288.2 483.9,284.3 505.3,283.8 505.5,288.1" fill="#92bfde" stroke="#92bfde" stroke-width="0.8" stroke-linejoin="round"/>
<line x1="505.5" y1="288.1" x2="505.3" y2="283.8" stroke="#e2690f" stroke-width="1.6"/>
<polygon points="462.6,288.2 462.4,284.8 483.9,284.3 484.0,288.2" fill="#92bfde" stroke="#92bfde" stroke-width="0.8" stroke-linejoin="round"/>
<line x1="462.6" y1="288.2" x2="462.4" y2="284.8" stroke="#a38659" stroke-width="4.5" stroke-linecap="round"/>
<polygon points="462.4,291.6 462.6,288.2 484.0,288.2 483.9,292.0" fill="#92bfde" stroke="#92bfde" stroke-width="0.8" stroke-linejoin="round"/>
<line x1="462.4" y1="291.6" x2="483.9" y2="292.0" stroke="#4f7fa6" stroke-width="1.1"/>
<line x1="462.4" y1="291.6" x2="462.6" y2="288.2" stroke="#a38659" stroke-width="4.5" stroke-linecap="round"/>
<polygon points="483.9,292.0 484.0,288.2 505.5,288.1 505.4,292.4" fill="#92bfde" stroke="#92bfde" stroke-width="0.8" stroke-linejoin="round"/>
<line x1="483.9" y1="292.0" x2="505.4" y2="292.4" stroke="#4f7fa6" stroke-width="1.1"/>
<polygon points="505.4,292.4 505.5,288.1 527.0,288.1 526.9,292.8" fill="#92bfde" stroke="#92bfde" stroke-width="0.8" stroke-linejoin="round"/>
<line x1="505.4" y1="292.4" x2="526.9" y2="292.8" stroke="#4f7fa6" stroke-width="1.1"/>
<line x1="505.4" y1="292.4" x2="505.5" y2="288.1" stroke="#e2690f" stroke-width="1.6"/>
<polygon points="526.9,292.8 527.0,288.1 548.5,288.0 548.3,293.3" fill="#92bfde" stroke="#92bfde" stroke-width="0.8" stroke-linejoin="round"/>
<line x1="526.9" y1="292.8" x2="548.3" y2="293.3" stroke="#4f7fa6" stroke-width="1.1"/>
<line x1="548.3" y1="293.3" x2="548.5" y2="288.0" stroke="#a38659" stroke-width="4.5" stroke-linecap="round"/>
<polygon points="462.0,295.0 462.4,291.6 483.9,292.0 483.5,295.9" fill="#92bfde" stroke="#92bfde" stroke-width="0.8" stroke-linejoin="round"/>
<line x1="462.0" y1="295.0" x2="462.4" y2="291.6" stroke="#a38659" stroke-width="4.5" stroke-linecap="round"/>
<polygon points="483.5,295.9 483.9,292.0 505.4,292.4 504.9,296.7" fill="#92bfde" stroke="#92bfde" stroke-width="0.8" stroke-linejoin="round"/>
<polygon points="504.9,296.7 505.4,292.4 526.9,292.8 526.3,297.6" fill="#92bfde" stroke="#92bfde" stroke-width="0.8" stroke-linejoin="round"/>
<polygon points="526.3,297.6 526.9,292.8 548.3,293.3 547.7,298.5" fill="#92bfde" stroke="#92bfde" stroke-width="0.8" stroke-linejoin="round"/>
<line x1="547.7" y1="298.5" x2="548.3" y2="293.3" stroke="#a38659" stroke-width="4.5" stroke-linecap="round"/>
<polygon points="461.4,298.3 462.0,295.0 483.5,295.9 482.7,299.7" fill="#92bfde" stroke="#92bfde" stroke-width="0.8" stroke-linejoin="round"/>
<line x1="461.4" y1="298.3" x2="462.0" y2="295.0" stroke="#a38659" stroke-width="4.5" stroke-linecap="round"/>
<polygon points="482.7,299.7 483.5,295.9 504.9,296.7 504.0,301.0" fill="#92bfde" stroke="#92bfde" stroke-width="0.8" stroke-linejoin="round"/>
<polygon points="504.0,301.0 504.9,296.7 526.3,297.6 525.3,302.3" fill="#92bfde" stroke="#92bfde" stroke-width="0.8" stroke-linejoin="round"/>
<polygon points="525.3,302.3 526.3,297.6 547.7,298.5 546.6,303.7" fill="#92bfde" stroke="#92bfde" stroke-width="0.8" stroke-linejoin="round"/>
<line x1="546.6" y1="303.7" x2="547.7" y2="298.5" stroke="#a38659" stroke-width="4.5" stroke-linecap="round"/>
<polygon points="460.4,301.6 461.4,298.3 482.7,299.7 481.6,303.4" fill="#92bfde" stroke="#92bfde" stroke-width="0.8" stroke-linejoin="round"/>
<line x1="460.4" y1="301.6" x2="461.4" y2="298.3" stroke="#a38659" stroke-width="4.5" stroke-linecap="round"/>
<polygon points="481.6,303.4 482.7,299.7 504.0,301.0 502.7,305.3" fill="#92bfde" stroke="#92bfde" stroke-width="0.8" stroke-linejoin="round"/>
<polygon points="502.7,305.3 504.0,301.0 525.3,302.3 523.9,307.1" fill="#92bfde" stroke="#92bfde" stroke-width="0.8" stroke-linejoin="round"/>
<line x1="502.7" y1="305.3" x2="504.0" y2="301.0" stroke="#e2690f" stroke-width="1.6"/>
<polygon points="459.1,304.9 460.4,301.6 481.6,303.4 480.1,307.2" fill="#92bfde" stroke="#92bfde" stroke-width="0.8" stroke-linejoin="round"/>
<line x1="459.1" y1="304.9" x2="480.1" y2="307.2" stroke="#4f7fa6" stroke-width="1.1"/>
<line x1="459.1" y1="304.9" x2="460.4" y2="301.6" stroke="#a38659" stroke-width="4.5" stroke-linecap="round"/>
<polygon points="523.9,307.1 525.3,302.3 546.6,303.7 545.1,308.9" fill="#92bfde" stroke="#92bfde" stroke-width="0.8" stroke-linejoin="round"/>
<line x1="545.1" y1="308.9" x2="546.6" y2="303.7" stroke="#a38659" stroke-width="4.5" stroke-linecap="round"/>
<polygon points="480.1,307.2 481.6,303.4 502.7,305.3 501.1,309.5" fill="#92bfde" stroke="#92bfde" stroke-width="0.8" stroke-linejoin="round"/>
<line x1="480.1" y1="307.2" x2="501.1" y2="309.5" stroke="#4f7fa6" stroke-width="1.1"/>
<polygon points="457.5,308.1 459.1,304.9 480.1,307.2 478.3,310.9" fill="#92bfde" stroke="#92bfde" stroke-width="0.8" stroke-linejoin="round"/>
<line x1="457.5" y1="308.1" x2="459.1" y2="304.9" stroke="#a38659" stroke-width="4.5" stroke-linecap="round"/>
<polygon points="501.1,309.5 502.7,305.3 523.9,307.1 522.1,311.8" fill="#92bfde" stroke="#92bfde" stroke-width="0.8" stroke-linejoin="round"/>
<line x1="501.1" y1="309.5" x2="522.1" y2="311.8" stroke="#4f7fa6" stroke-width="1.1"/>
<line x1="501.1" y1="309.5" x2="502.7" y2="305.3" stroke="#e2690f" stroke-width="1.6"/>
<polygon points="478.3,310.9 480.1,307.2 501.1,309.5 499.1,313.7" fill="#92bfde" stroke="#92bfde" stroke-width="0.8" stroke-linejoin="round"/>
<polygon points="522.1,311.8 523.9,307.1 545.1,308.9 543.1,314.1" fill="#92bfde" stroke="#92bfde" stroke-width="0.8" stroke-linejoin="round"/>
<line x1="522.1" y1="311.8" x2="543.1" y2="314.1" stroke="#4f7fa6" stroke-width="1.1"/>
<line x1="543.1" y1="314.1" x2="545.1" y2="308.9" stroke="#a38659" stroke-width="4.5" stroke-linecap="round"/>
<polygon points="455.7,311.3 457.5,308.1 478.3,310.9 476.2,314.5" fill="#92bfde" stroke="#92bfde" stroke-width="0.8" stroke-linejoin="round"/>
<line x1="455.7" y1="311.3" x2="457.5" y2="308.1" stroke="#a38659" stroke-width="4.5" stroke-linecap="round"/>
<polygon points="499.1,313.7 501.1,309.5 522.1,311.8 519.8,316.4" fill="#92bfde" stroke="#92bfde" stroke-width="0.8" stroke-linejoin="round"/>
<polygon points="476.2,314.5 478.3,310.9 499.1,313.7 496.7,317.8" fill="#92bfde" stroke="#92bfde" stroke-width="0.8" stroke-linejoin="round"/>
<polygon points="453.5,314.4 455.7,311.3 476.2,314.5 473.7,318.1" fill="#92bfde" stroke="#92bfde" stroke-width="0.8" stroke-linejoin="round"/>
<line x1="453.5" y1="314.4" x2="455.7" y2="311.3" stroke="#a38659" stroke-width="4.5" stroke-linecap="round"/>
<polygon points="519.8,316.4 522.1,311.8 543.1,314.1 540.6,319.2" fill="#92bfde" stroke="#92bfde" stroke-width="0.8" stroke-linejoin="round"/>
<line x1="540.6" y1="319.2" x2="543.1" y2="314.1" stroke="#a38659" stroke-width="4.5" stroke-linecap="round"/>
<polygon points="496.7,317.8 499.1,313.7 519.8,316.4 517.1,321.0" fill="#92bfde" stroke="#92bfde" stroke-width="0.8" stroke-linejoin="round"/>
<polygon points="451.1,317.5 453.5,314.4 473.7,318.1 470.9,321.7" fill="#92bfde" stroke="#92bfde" stroke-width="0.8" stroke-linejoin="round"/>
<line x1="451.1" y1="317.5" x2="470.9" y2="321.7" stroke="#4f7fa6" stroke-width="1.1"/>
<line x1="451.1" y1="317.5" x2="453.5" y2="314.4" stroke="#a38659" stroke-width="4.5" stroke-linecap="round"/>
<polygon points="473.7,318.1 476.2,314.5 496.7,317.8 493.9,321.8" fill="#92bfde" stroke="#92bfde" stroke-width="0.8" stroke-linejoin="round"/>
<polygon points="517.1,321.0 519.8,316.4 540.6,319.2 537.6,324.3" fill="#92bfde" stroke="#92bfde" stroke-width="0.8" stroke-linejoin="round"/>
<line x1="537.6" y1="324.3" x2="540.6" y2="319.2" stroke="#a38659" stroke-width="4.5" stroke-linecap="round"/>
<polygon points="448.4,320.5 451.1,317.5 470.9,321.7 467.8,325.2" fill="#92bfde" stroke="#92bfde" stroke-width="0.8" stroke-linejoin="round"/>
<line x1="448.4" y1="320.5" x2="451.1" y2="317.5" stroke="#a38659" stroke-width="4.5" stroke-linecap="round"/>
<polygon points="493.9,321.8 496.7,317.8 517.1,321.0 514.0,325.6" fill="#92bfde" stroke="#92bfde" stroke-width="0.8" stroke-linejoin="round"/>
<line x1="493.9" y1="321.8" x2="496.7" y2="317.8" stroke="#e2690f" stroke-width="1.6"/>
<polygon points="470.9,321.7 473.7,318.1 493.9,321.8 490.7,325.8" fill="#92bfde" stroke="#92bfde" stroke-width="0.8" stroke-linejoin="round"/>
<line x1="470.9" y1="321.7" x2="490.7" y2="325.8" stroke="#4f7fa6" stroke-width="1.1"/>
<polygon points="445.4,323.5 448.4,320.5 467.8,325.2 464.4,328.6" fill="#92bfde" stroke="#92bfde" stroke-width="0.8" stroke-linejoin="round"/>
<line x1="445.4" y1="323.5" x2="448.4" y2="320.5" stroke="#a38659" stroke-width="4.5" stroke-linecap="round"/>
<polygon points="514.0,325.6 517.1,321.0 537.6,324.3 534.2,329.3" fill="#92bfde" stroke="#92bfde" stroke-width="0.8" stroke-linejoin="round"/>
<line x1="534.2" y1="329.3" x2="537.6" y2="324.3" stroke="#a38659" stroke-width="4.5" stroke-linecap="round"/>
<polygon points="467.8,325.2 470.9,321.7 490.7,325.8 487.2,329.8" fill="#92bfde" stroke="#92bfde" stroke-width="0.8" stroke-linejoin="round"/>
<polygon points="490.7,325.8 493.9,321.8 514.0,325.6 510.5,330.0" fill="#92bfde" stroke="#92bfde" stroke-width="0.8" stroke-linejoin="round"/>
<line x1="490.7" y1="325.8" x2="510.5" y2="330.0" stroke="#4f7fa6" stroke-width="1.1"/>
<line x1="490.7" y1="325.8" x2="493.9" y2="321.8" stroke="#e2690f" stroke-width="1.6"/>
<polygon points="442.1,326.5 445.4,323.5 464.4,328.6 460.6,331.9" fill="#92bfde" stroke="#92bfde" stroke-width="0.8" stroke-linejoin="round"/>
<line x1="442.1" y1="326.5" x2="445.4" y2="323.5" stroke="#a38659" stroke-width="4.5" stroke-linecap="round"/>
<polygon points="464.4,328.6 467.8,325.2 487.2,329.8 483.3,333.6" fill="#92bfde" stroke="#92bfde" stroke-width="0.8" stroke-linejoin="round"/>
<polygon points="510.5,330.0 514.0,325.6 534.2,329.3 530.3,334.2" fill="#92bfde" stroke="#92bfde" stroke-width="0.8" stroke-linejoin="round"/>
<line x1="510.5" y1="330.0" x2="530.3" y2="334.2" stroke="#4f7fa6" stroke-width="1.1"/>
<line x1="530.3" y1="334.2" x2="534.2" y2="329.3" stroke="#a38659" stroke-width="4.5" stroke-linecap="round"/>
<polygon points="487.2,329.8 490.7,325.8 510.5,330.0 506.6,334.4" fill="#92bfde" stroke="#92bfde" stroke-width="0.8" stroke-linejoin="round"/>
<polygon points="438.6,329.3 442.1,326.5 460.6,331.9 456.6,335.2" fill="#92bfde" stroke="#92bfde" stroke-width="0.8" stroke-linejoin="round"/>
<line x1="438.6" y1="329.3" x2="456.6" y2="335.2" stroke="#4f7fa6" stroke-width="1.1"/>
<line x1="438.6" y1="329.3" x2="442.1" y2="326.5" stroke="#a38659" stroke-width="4.5" stroke-linecap="round"/>
<polygon points="460.6,331.9 464.4,328.6 483.3,333.6 479.2,337.4" fill="#92bfde" stroke="#92bfde" stroke-width="0.8" stroke-linejoin="round"/>
<polygon points="434.7,332.1 438.6,329.3 456.6,335.2 452.3,338.4" fill="#92bfde" stroke="#92bfde" stroke-width="0.8" stroke-linejoin="round"/>
<line x1="434.7" y1="332.1" x2="438.6" y2="329.3" stroke="#a38659" stroke-width="4.5" stroke-linecap="round"/>
<polygon points="483.3,333.6 487.2,329.8 506.6,334.4 502.3,338.6" fill="#92bfde" stroke="#92bfde" stroke-width="0.8" stroke-linejoin="round"/>
<polygon points="506.6,334.4 510.5,330.0 530.3,334.2 526.0,339.0" fill="#92bfde" stroke="#92bfde" stroke-width="0.8" stroke-linejoin="round"/>
<line x1="526.0" y1="339.0" x2="530.3" y2="334.2" stroke="#a38659" stroke-width="4.5" stroke-linecap="round"/>
<polygon points="456.6,335.2 460.6,331.9 479.2,337.4 474.6,341.0" fill="#92bfde" stroke="#92bfde" stroke-width="0.8" stroke-linejoin="round"/>
<line x1="456.6" y1="335.2" x2="474.6" y2="341.0" stroke="#4f7fa6" stroke-width="1.1"/>
<polygon points="430.7,334.9 434.7,332.1 452.3,338.4 447.7,341.5" fill="#92bfde" stroke="#92bfde" stroke-width="0.8" stroke-linejoin="round"/>
<line x1="430.7" y1="334.9" x2="434.7" y2="332.1" stroke="#a38659" stroke-width="4.5" stroke-linecap="round"/>
<polygon points="479.2,337.4 483.3,333.6 502.3,338.6 497.7,342.8" fill="#92bfde" stroke="#92bfde" stroke-width="0.8" stroke-linejoin="round"/>
<line x1="479.2" y1="337.4" x2="483.3" y2="333.6" stroke="#e2690f" stroke-width="1.6"/>
<polygon points="502.3,338.6 506.6,334.4 526.0,339.0 521.3,343.7" fill="#92bfde" stroke="#92bfde" stroke-width="0.8" stroke-linejoin="round"/>
<line x1="521.3" y1="343.7" x2="526.0" y2="339.0" stroke="#a38659" stroke-width="4.5" stroke-linecap="round"/>
<polygon points="426.3,337.6 430.7,334.9 447.7,341.5 442.8,344.5" fill="#92bfde" stroke="#92bfde" stroke-width="0.8" stroke-linejoin="round"/>
<line x1="426.3" y1="337.6" x2="430.7" y2="334.9" stroke="#a38659" stroke-width="4.5" stroke-linecap="round"/>
<polygon points="452.3,338.4 456.6,335.2 474.6,341.0 469.8,344.6" fill="#92bfde" stroke="#92bfde" stroke-width="0.8" stroke-linejoin="round"/>
<polygon points="474.6,341.0 479.2,337.4 497.7,342.8 492.7,346.8" fill="#92bfde" stroke="#92bfde" stroke-width="0.8" stroke-linejoin="round"/>
<line x1="474.6" y1="341.0" x2="492.7" y2="346.8" stroke="#4f7fa6" stroke-width="1.1"/>
<line x1="474.6" y1="341.0" x2="479.2" y2="337.4" stroke="#e2690f" stroke-width="1.6"/>
<polygon points="421.8,340.2 426.3,337.6 442.8,344.5 437.7,347.4" fill="#92bfde" stroke="#92bfde" stroke-width="0.8" stroke-linejoin="round"/>
<line x1="421.8" y1="340.2" x2="437.7" y2="347.4" stroke="#4f7fa6" stroke-width="1.1"/>
<line x1="421.8" y1="340.2" x2="426.3" y2="337.6" stroke="#a38659" stroke-width="4.5" stroke-linecap="round"/>
<polygon points="447.7,341.5 452.3,338.4 469.8,344.6 464.7,348.0" fill="#92bfde" stroke="#92bfde" stroke-width="0.8" stroke-linejoin="round"/>
<polygon points="497.7,342.8 502.3,338.6 521.3,343.7 516.2,348.3" fill="#92bfde" stroke="#92bfde" stroke-width="0.8" stroke-linejoin="round"/>
<line x1="516.2" y1="348.3" x2="521.3" y2="343.7" stroke="#a38659" stroke-width="4.5" stroke-linecap="round"/>
<polygon points="416.9,342.8 421.8,340.2 437.7,347.4 432.4,350.3" fill="#92bfde" stroke="#92bfde" stroke-width="0.8" stroke-linejoin="round"/>
<line x1="416.9" y1="342.8" x2="421.8" y2="340.2" stroke="#a38659" stroke-width="4.5" stroke-linecap="round"/>
<polygon points="469.8,344.6 474.6,341.0 492.7,346.8 487.3,350.8" fill="#92bfde" stroke="#92bfde" stroke-width="0.8" stroke-linejoin="round"/>
<polygon points="442.8,344.5 447.7,341.5 464.7,348.0 459.3,351.4" fill="#92bfde" stroke="#92bfde" stroke-width="0.8" stroke-linejoin="round"/>
<polygon points="492.7,346.8 497.7,342.8 516.2,348.3 510.7,352.7" fill="#92bfde" stroke="#92bfde" stroke-width="0.8" stroke-linejoin="round"/>
<line x1="492.7" y1="346.8" x2="510.7" y2="352.7" stroke="#4f7fa6" stroke-width="1.1"/>
<line x1="510.7" y1="352.7" x2="516.2" y2="348.3" stroke="#a38659" stroke-width="4.5" stroke-linecap="round"/>
<polygon points="411.9,345.3 416.9,342.8 432.4,350.3 426.8,353.1" fill="#92bfde" stroke="#92bfde" stroke-width="0.8" stroke-linejoin="round"/>
<line x1="411.9" y1="345.3" x2="416.9" y2="342.8" stroke="#a38659" stroke-width="4.5" stroke-linecap="round"/>
<polygon points="437.7,347.4 442.8,344.5 459.3,351.4 453.7,354.6" fill="#92bfde" stroke="#92bfde" stroke-width="0.8" stroke-linejoin="round"/>
<polygon points="464.7,348.0 469.8,344.6 487.3,350.8 481.7,354.6" fill="#92bfde" stroke="#92bfde" stroke-width="0.8" stroke-linejoin="round"/>
<line x1="437.7" y1="347.4" x2="453.7" y2="354.6" stroke="#4f7fa6" stroke-width="1.1"/>
<polygon points="406.6,347.8 411.9,345.3 426.8,353.1 421.0,355.8" fill="#92bfde" stroke="#92bfde" stroke-width="0.8" stroke-linejoin="round"/>
<line x1="406.6" y1="347.8" x2="411.9" y2="345.3" stroke="#a38659" stroke-width="4.5" stroke-linecap="round"/>
<polygon points="487.3,350.8 492.7,346.8 510.7,352.7 504.9,357.0" fill="#92bfde" stroke="#92bfde" stroke-width="0.8" stroke-linejoin="round"/>
<line x1="504.9" y1="357.0" x2="510.7" y2="352.7" stroke="#a38659" stroke-width="4.5" stroke-linecap="round"/>
<polygon points="432.4,350.3 437.7,347.4 453.7,354.6 447.8,357.8" fill="#92bfde" stroke="#92bfde" stroke-width="0.8" stroke-linejoin="round"/>
<polygon points="401.1,350.2 406.6,347.8 421.0,355.8 415.1,358.4" fill="#92bfde" stroke="#92bfde" stroke-width="0.8" stroke-linejoin="round"/>
<polygon points="459.3,351.4 464.7,348.0 481.7,354.6 475.8,358.3" fill="#92bfde" stroke="#92bfde" stroke-width="0.8" stroke-linejoin="round"/>
<line x1="401.1" y1="350.2" x2="415.1" y2="358.4" stroke="#4f7fa6" stroke-width="1.1"/>
<line x1="401.1" y1="350.2" x2="406.6" y2="347.8" stroke="#a38659" stroke-width="4.5" stroke-linecap="round"/>
<line x1="459.3" y1="351.4" x2="464.7" y2="348.0" stroke="#e2690f" stroke-width="1.6"/>
<polygon points="426.8,353.1 432.4,350.3 447.8,357.8 441.7,360.8" fill="#92bfde" stroke="#92bfde" stroke-width="0.8" stroke-linejoin="round"/>
<polygon points="395.4,352.6 401.1,350.2 415.1,358.4 408.9,361.0" fill="#92bfde" stroke="#92bfde" stroke-width="0.8" stroke-linejoin="round"/>
<line x1="395.4" y1="352.6" x2="401.1" y2="350.2" stroke="#a38659" stroke-width="4.5" stroke-linecap="round"/>
<polygon points="481.7,354.6 487.3,350.8 504.9,357.0 498.7,361.1" fill="#92bfde" stroke="#92bfde" stroke-width="0.8" stroke-linejoin="round"/>
<line x1="498.7" y1="361.1" x2="504.9" y2="357.0" stroke="#a38659" stroke-width="4.5" stroke-linecap="round"/>
<polygon points="453.7,354.6 459.3,351.4 475.8,358.3 469.7,361.8" fill="#92bfde" stroke="#92bfde" stroke-width="0.8" stroke-linejoin="round"/>
<line x1="453.7" y1="354.6" x2="469.7" y2="361.8" stroke="#4f7fa6" stroke-width="1.1"/>
<line x1="453.7" y1="354.6" x2="459.3" y2="351.4" stroke="#e2690f" stroke-width="1.6"/>
<polygon points="389.5,354.9 395.4,352.6 408.9,361.0 402.6,363.4" fill="#92bfde" stroke="#92bfde" stroke-width="0.8" stroke-linejoin="round"/>
<line x1="389.5" y1="354.9" x2="395.4" y2="352.6" stroke="#a38659" stroke-width="4.5" stroke-linecap="round"/>
<polygon points="421.0,355.8 426.8,353.1 441.7,360.8 435.5,363.7" fill="#92bfde" stroke="#92bfde" stroke-width="0.8" stroke-linejoin="round"/>
<polygon points="475.8,358.3 481.7,354.6 498.7,361.1 492.3,365.1" fill="#92bfde" stroke="#92bfde" stroke-width="0.8" stroke-linejoin="round"/>
<line x1="492.3" y1="365.1" x2="498.7" y2="361.1" stroke="#a38659" stroke-width="4.5" stroke-linecap="round"/>
<polygon points="447.8,357.8 453.7,354.6 469.7,361.8 463.3,365.2" fill="#92bfde" stroke="#92bfde" stroke-width="0.8" stroke-linejoin="round"/>
<polygon points="415.1,358.4 421.0,355.8 435.5,363.7 429.0,366.6" fill="#92bfde" stroke="#92bfde" stroke-width="0.8" stroke-linejoin="round"/>
<line x1="415.1" y1="358.4" x2="429.0" y2="366.6" stroke="#4f7fa6" stroke-width="1.1"/>
<polygon points="377.2,359.4 389.5,354.9 402.6,363.4 389.5,368.2" fill="#92bfde" stroke="#92bfde" stroke-width="0.8" stroke-linejoin="round"/>
<line x1="377.2" y1="359.4" x2="389.5" y2="368.2" stroke="#4f7fa6" stroke-width="1.1"/>
<line x1="377.2" y1="359.4" x2="389.5" y2="354.9" stroke="#a38659" stroke-width="4.5" stroke-linecap="round"/>
<polygon points="441.7,360.8 447.8,357.8 463.3,365.2 456.7,368.5" fill="#92bfde" stroke="#92bfde" stroke-width="0.8" stroke-linejoin="round"/>
<polygon points="469.7,361.8 475.8,358.3 492.3,365.1 485.6,369.0" fill="#92bfde" stroke="#92bfde" stroke-width="0.8" stroke-linejoin="round"/>
<line x1="469.7" y1="361.8" x2="485.6" y2="369.0" stroke="#4f7fa6" stroke-width="1.1"/>
<line x1="485.6" y1="369.0" x2="492.3" y2="365.1" stroke="#a38659" stroke-width="4.5" stroke-linecap="round"/>
<polygon points="408.9,361.0 415.1,358.4 429.0,366.6 422.4,369.3" fill="#92bfde" stroke="#92bfde" stroke-width="0.8" stroke-linejoin="round"/>
<polygon points="364.2,363.7 377.2,359.4 389.5,368.2 375.8,372.8" fill="#92bfde" stroke="#92bfde" stroke-width="0.8" stroke-linejoin="round"/>
<line x1="364.2" y1="363.7" x2="377.2" y2="359.4" stroke="#a38659" stroke-width="4.5" stroke-linecap="round"/>
<polygon points="435.5,363.7 441.7,360.8 456.7,368.5 449.9,371.7" fill="#92bfde" stroke="#92bfde" stroke-width="0.8" stroke-linejoin="round"/>
<line x1="435.5" y1="363.7" x2="441.7" y2="360.8" stroke="#e2690f" stroke-width="1.6"/>
<polygon points="402.6,363.4 408.9,361.0 422.4,369.3 415.6,372.0" fill="#92bfde" stroke="#92bfde" stroke-width="0.8" stroke-linejoin="round"/>
<polygon points="463.3,365.2 469.7,361.8 485.6,369.0 478.7,372.7" fill="#92bfde" stroke="#92bfde" stroke-width="0.8" stroke-linejoin="round"/>
<line x1="478.7" y1="372.7" x2="485.6" y2="369.0" stroke="#a38659" stroke-width="4.5" stroke-linecap="round"/>
<polygon points="429.0,366.6 435.5,363.7 449.9,371.7 443.0,374.7" fill="#92bfde" stroke="#92bfde" stroke-width="0.8" stroke-linejoin="round"/>
<line x1="429.0" y1="366.6" x2="443.0" y2="374.7" stroke="#4f7fa6" stroke-width="1.1"/>
<line x1="429.0" y1="366.6" x2="435.5" y2="363.7" stroke="#e2690f" stroke-width="1.6"/>
<polygon points="389.5,368.2 402.6,363.4 415.6,372.0 401.7,377.0" fill="#92bfde" stroke="#92bfde" stroke-width="0.8" stroke-linejoin="round"/>
<line x1="389.5" y1="368.2" x2="401.7" y2="377.0" stroke="#4f7fa6" stroke-width="1.1"/>
<polygon points="350.7,367.9 364.2,363.7 375.8,372.8 361.8,377.1" fill="#92bfde" stroke="#92bfde" stroke-width="0.8" stroke-linejoin="round"/>
<line x1="350.7" y1="367.9" x2="361.8" y2="377.1" stroke="#4f7fa6" stroke-width="1.1"/>
<line x1="350.7" y1="367.9" x2="364.2" y2="363.7" stroke="#a38659" stroke-width="4.5" stroke-linecap="round"/>
<polygon points="456.7,368.5 463.3,365.2 478.7,372.7 471.6,376.3" fill="#92bfde" stroke="#92bfde" stroke-width="0.8" stroke-linejoin="round"/>
<line x1="471.6" y1="376.3" x2="478.7" y2="372.7" stroke="#a38659" stroke-width="4.5" stroke-linecap="round"/>
<polygon points="422.4,369.3 429.0,366.6 443.0,374.7 435.9,377.7" fill="#92bfde" stroke="#92bfde" stroke-width="0.8" stroke-linejoin="round"/>
<polygon points="449.9,371.7 456.7,368.5 471.6,376.3 464.3,379.7" fill="#92bfde" stroke="#92bfde" stroke-width="0.8" stroke-linejoin="round"/>
<line x1="464.3" y1="379.7" x2="471.6" y2="376.3" stroke="#a38659" stroke-width="4.5" stroke-linecap="round"/>
<polygon points="415.6,372.0 422.4,369.3 435.9,377.7 428.7,380.5" fill="#92bfde" stroke="#92bfde" stroke-width="0.8" stroke-linejoin="round"/>
<polygon points="375.8,372.8 389.5,368.2 401.7,377.0 387.4,381.8" fill="#92bfde" stroke="#92bfde" stroke-width="0.8" stroke-linejoin="round"/>
<polygon points="322.2,376.1 350.7,367.9 361.8,377.1 332.6,385.5" fill="#92bfde" stroke="#92bfde" stroke-width="0.8" stroke-linejoin="round"/>
<line x1="322.2" y1="376.1" x2="332.6" y2="385.5" stroke="#4f7fa6" stroke-width="1.1"/>
<line x1="322.2" y1="376.1" x2="350.7" y2="367.9" stroke="#a38659" stroke-width="4.5" stroke-linecap="round"/>
<polygon points="443.0,374.7 449.9,371.7 464.3,379.7 456.9,382.9" fill="#92bfde" stroke="#92bfde" stroke-width="0.8" stroke-linejoin="round"/>
<line x1="443.0" y1="374.7" x2="456.9" y2="382.9" stroke="#4f7fa6" stroke-width="1.1"/>
<line x1="456.9" y1="382.9" x2="464.3" y2="379.7" stroke="#a38659" stroke-width="4.5" stroke-linecap="round"/>
<polygon points="401.7,377.0 415.6,372.0 428.7,380.5 414.0,385.9" fill="#92bfde" stroke="#92bfde" stroke-width="0.8" stroke-linejoin="round"/>
<line x1="401.7" y1="377.0" x2="414.0" y2="385.9" stroke="#4f7fa6" stroke-width="1.1"/>
<line x1="401.7" y1="377.0" x2="415.6" y2="372.0" stroke="#e2690f" stroke-width="1.6"/>
<polygon points="361.8,377.1 375.8,372.8 387.4,381.8 372.8,386.3" fill="#92bfde" stroke="#92bfde" stroke-width="0.8" stroke-linejoin="round"/>
<line x1="361.8" y1="377.1" x2="372.8" y2="386.3" stroke="#4f7fa6" stroke-width="1.1"/>
<polygon points="435.9,377.7 443.0,374.7 456.9,382.9 449.4,386.0" fill="#92bfde" stroke="#92bfde" stroke-width="0.8" stroke-linejoin="round"/>
<line x1="449.4" y1="386.0" x2="456.9" y2="382.9" stroke="#a38659" stroke-width="4.5" stroke-linecap="round"/>
<polygon points="428.7,380.5 435.9,377.7 449.4,386.0 441.7,389.0" fill="#92bfde" stroke="#92bfde" stroke-width="0.8" stroke-linejoin="round"/>
<line x1="441.7" y1="389.0" x2="449.4" y2="386.0" stroke="#a38659" stroke-width="4.5" stroke-linecap="round"/>
<polygon points="387.4,381.8 401.7,377.0 414.0,385.9 399.0,390.8" fill="#92bfde" stroke="#92bfde" stroke-width="0.8" stroke-linejoin="round"/>
<polygon points="332.6,385.5 361.8,377.1 372.8,386.3 343.0,394.9" fill="#92bfde" stroke="#92bfde" stroke-width="0.8" stroke-linejoin="round"/>
<line x1="332.6" y1="385.5" x2="343.0" y2="394.9" stroke="#4f7fa6" stroke-width="1.1"/>
<polygon points="414.0,385.9 428.7,380.5 441.7,389.0 426.3,394.7" fill="#92bfde" stroke="#92bfde" stroke-width="0.8" stroke-linejoin="round"/>
<line x1="414.0" y1="385.9" x2="426.3" y2="394.7" stroke="#4f7fa6" stroke-width="1.1"/>
<line x1="426.3" y1="394.7" x2="441.7" y2="389.0" stroke="#a38659" stroke-width="4.5" stroke-linecap="round"/>
<polygon points="372.8,386.3 387.4,381.8 399.0,390.8 383.9,395.5" fill="#92bfde" stroke="#92bfde" stroke-width="0.8" stroke-linejoin="round"/>
<line x1="372.8" y1="386.3" x2="383.9" y2="395.5" stroke="#4f7fa6" stroke-width="1.1"/>
<line x1="372.8" y1="386.3" x2="387.4" y2="381.8" stroke="#e2690f" stroke-width="1.6"/>
<polygon points="262.2,392.2 322.2,376.1 332.6,385.5 272.3,401.7" fill="#92bfde" stroke="#92bfde" stroke-width="0.8" stroke-linejoin="round"/>
<line x1="262.2" y1="392.2" x2="272.3" y2="401.7" stroke="#4f7fa6" stroke-width="1.1"/>
<line x1="292.2" y1="384.1" x2="302.5" y2="393.6" stroke="#4f7fa6" stroke-width="1.1"/>
<line x1="262.2" y1="392.2" x2="322.2" y2="376.1" stroke="#a38659" stroke-width="4.5" stroke-linecap="round"/>
<polygon points="399.0,390.8 414.0,385.9 426.3,394.7 410.6,399.9" fill="#92bfde" stroke="#92bfde" stroke-width="0.8" stroke-linejoin="round"/>
<line x1="410.6" y1="399.9" x2="426.3" y2="394.7" stroke="#a38659" stroke-width="4.5" stroke-linecap="round"/>
<polygon points="343.0,394.9 372.8,386.3 383.9,395.5 353.4,404.3" fill="#92bfde" stroke="#92bfde" stroke-width="0.8" stroke-linejoin="round"/>
<line x1="343.0" y1="394.9" x2="353.4" y2="404.3" stroke="#4f7fa6" stroke-width="1.1"/>
<line x1="343.0" y1="394.9" x2="357.9" y2="390.6" stroke="#e2690f" stroke-width="1.6"/>
<polygon points="383.9,395.5 399.0,390.8 410.6,399.9 395.0,404.7" fill="#92bfde" stroke="#92bfde" stroke-width="0.8" stroke-linejoin="round"/>
<line x1="383.9" y1="395.5" x2="395.0" y2="404.7" stroke="#4f7fa6" stroke-width="1.1"/>
<line x1="395.0" y1="404.7" x2="410.6" y2="399.9" stroke="#a38659" stroke-width="4.5" stroke-linecap="round"/>
<polygon points="272.3,401.7 332.6,385.5 343.0,394.9 282.4,411.1" fill="#92bfde" stroke="#92bfde" stroke-width="0.8" stroke-linejoin="round"/>
<line x1="272.3" y1="401.7" x2="282.4" y2="411.1" stroke="#4f7fa6" stroke-width="1.1"/>
<line x1="302.5" y1="393.6" x2="312.7" y2="403.0" stroke="#4f7fa6" stroke-width="1.1"/>
<polygon points="353.4,404.3 383.9,395.5 395.0,404.7 363.8,413.7" fill="#92bfde" stroke="#92bfde" stroke-width="0.8" stroke-linejoin="round"/>
<line x1="353.4" y1="404.3" x2="363.8" y2="413.7" stroke="#4f7fa6" stroke-width="1.1"/>
<line x1="363.8" y1="413.7" x2="395.0" y2="404.7" stroke="#a38659" stroke-width="4.5" stroke-linecap="round"/>
<polygon points="317.0,393.2 343.0,394.7 331.3,406.5" fill="#e2690f"/>
<polygon points="282.4,411.1 343.0,394.9 353.4,404.3 292.5,420.6" fill="#92bfde" stroke="#92bfde" stroke-width="0.8" stroke-linejoin="round"/>
<line x1="282.4" y1="411.1" x2="292.5" y2="420.6" stroke="#4f7fa6" stroke-width="1.1"/>
<line x1="312.7" y1="403.0" x2="323.0" y2="412.5" stroke="#4f7fa6" stroke-width="1.1"/>
<line x1="282.4" y1="411.1" x2="297.6" y2="407.1" stroke="#e2690f" stroke-width="1.6"/>
<line x1="312.7" y1="403.0" x2="327.9" y2="398.9" stroke="#e2690f" stroke-width="1.6"/>
<polygon points="290.5,400.3 316.6,401.9 304.7,413.6" fill="#e2690f"/>
<polygon points="292.5,420.6 353.4,404.3 363.8,413.7 302.6,430.1" fill="#92bfde" stroke="#92bfde" stroke-width="0.8" stroke-linejoin="round"/>
<line x1="292.5" y1="420.6" x2="302.6" y2="430.1" stroke="#4f7fa6" stroke-width="1.1"/>
<line x1="323.0" y1="412.5" x2="333.2" y2="421.9" stroke="#4f7fa6" stroke-width="1.1"/>
<line x1="302.6" y1="430.1" x2="363.8" y2="413.7" stroke="#a38659" stroke-width="4.5" stroke-linecap="round"/>
</svg>
