<svg xmlns="http://www.w3.org/2000/svg" width="800" height="540" viewBox="0 0 800 540" font-family="'Martian Mono', 'SF Mono', Menlo, ui-monospace, monospace">
<rect width="800" height="540" fill="#fbf9f5"/>
<text x="28" y="46" font-size="27" font-weight="600" fill="#2a1d17">sbend2_left snow</text>
<text x="28" y="76" font-size="16" fill="#6f5a4e" font-family="Saira, system-ui, -apple-system, Helvetica, sans-serif">neige 16 m · une cellule de côté sur 2 cellules · rayon 26 m au plus serré</text>
<polygon points="286.3,488.0 28.0,245.1 513.7,116.0 772.0,358.9" fill="#ece4d8"/>
<polygon points="324.2,426.0 238.1,345.0 400.0,302.0 486.1,383.0" fill="#dfd1bd"/>
<polygon points="238.1,345.0 152.0,264.1 313.9,221.0 400.0,302.0" fill="#dfd1bd"/>
<polygon points="486.1,383.0 400.0,302.0 561.9,259.0 648.0,339.9" fill="#dfd1bd"/>
<polygon points="400.0,302.0 313.9,221.0 475.8,178.0 561.9,259.0" fill="#dfd1bd"/>
<line x1="243.2" y1="447.5" x2="729.0" y2="318.4" stroke="#c9b7a1" stroke-width="1.2"/>
<line x1="157.1" y1="366.6" x2="642.9" y2="237.4" stroke="#c9b7a1" stroke-width="1.2"/>
<line x1="71.0" y1="285.6" x2="556.8" y2="156.5" stroke="#c9b7a1" stroke-width="1.2"/>
<line x1="367.2" y1="466.5" x2="109.0" y2="223.6" stroke="#c9b7a1" stroke-width="1.2"/>
<line x1="529.1" y1="423.4" x2="270.9" y2="180.6" stroke="#c9b7a1" stroke-width="1.2"/>
<line x1="691.0" y1="380.4" x2="432.8" y2="137.5" stroke="#c9b7a1" stroke-width="1.2"/>
<polygon points="259.6,365.3 277.6,360.3 281.5,359.1 285.1,357.9 288.6,356.7 291.9,355.4 295.1,354.1 298.1,352.8 301.1,351.4 304.0,349.9 306.9,348.2 309.7,346.5 312.5,344.7 315.3,342.7 318.0,340.6 320.7,338.4 323.4,336.0 326.1,333.5 331.4,328.1 336.5,322.2 341.6,315.8 346.6,309.0 356.6,294.6 367.1,279.5 372.7,271.9 378.8,264.3 385.3,256.8 392.4,249.4 396.3,245.9 400.3,242.3 404.5,238.9 408.9,235.5 413.5,232.2 418.4,229.0 423.4,225.9 428.7,223.0 434.2,220.2 439.8,217.5 445.6,214.9 451.4,212.5 457.4,210.3 463.4,208.2 469.3,206.2 475.2,204.4 497.3,198.2 540.4,238.7 522.4,243.7 518.5,244.9 514.9,246.1 511.4,247.3 508.1,248.6 504.9,249.9 501.9,251.2 498.9,252.6 496.0,254.1 493.1,255.8 490.3,257.5 487.5,259.3 484.7,261.3 482.0,263.4 479.3,265.6 476.6,268.0 473.9,270.5 468.6,275.9 463.5,281.8 458.4,288.2 453.4,295.0 443.4,309.4 432.9,324.5 427.3,332.1 421.2,339.7 414.7,347.2 407.6,354.6 403.7,358.1 399.7,361.7 395.5,365.1 391.1,368.5 386.5,371.8 381.6,375.0 376.6,378.1 371.3,381.0 365.8,383.8 360.2,386.5 354.4,389.1 348.6,391.5 342.6,393.7 336.6,395.8 330.7,397.8 324.8,399.6 302.7,405.8" fill="#2a1d17" fill-opacity="0.10"/>
<polygon points="475.2,204.4 497.3,198.2 508.1,208.4 487.0,214.2" fill="#bfc8d4" stroke="#bfc8d4" stroke-width="0.8" stroke-linejoin="round"/>
<line x1="475.2" y1="204.4" x2="497.3" y2="198.2" stroke="#8f4020" stroke-width="1.4"/>
<polygon points="469.3,206.2 475.2,204.4 487.0,214.2 481.6,215.9" fill="#bfc8d4" stroke="#bfc8d4" stroke-width="0.8" stroke-linejoin="round"/>
<line x1="469.3" y1="206.2" x2="475.2" y2="204.4" stroke="#8f4020" stroke-width="1.4"/>
<polygon points="463.4,208.2 469.3,206.2 481.6,215.9 476.2,217.6" fill="#bfc8d4" stroke="#bfc8d4" stroke-width="0.8" stroke-linejoin="round"/>
<line x1="463.4" y1="208.2" x2="469.3" y2="206.2" stroke="#8f4020" stroke-width="1.4"/>
<polygon points="457.4,210.3 463.4,208.2 476.2,217.6 470.9,219.5" fill="#bfc8d4" stroke="#bfc8d4" stroke-width="0.8" stroke-linejoin="round"/>
<line x1="457.4" y1="210.3" x2="463.4" y2="208.2" stroke="#8f4020" stroke-width="1.4"/>
<polygon points="451.4,212.5 457.4,210.3 470.9,219.5 465.6,221.5" fill="#bfc8d4" stroke="#bfc8d4" stroke-width="0.8" stroke-linejoin="round"/>
<line x1="451.4" y1="212.5" x2="465.6" y2="221.5" stroke="#7b8aa0" stroke-width="1.1"/>
<line x1="451.4" y1="212.5" x2="457.4" y2="210.3" stroke="#8f4020" stroke-width="1.4"/>
<polygon points="487.0,214.2 508.1,208.4 518.9,218.5 498.8,224.0" fill="#bfc8d4" stroke="#bfc8d4" stroke-width="0.8" stroke-linejoin="round"/>
<polygon points="445.6,214.9 451.4,212.5 465.6,221.5 460.4,223.7" fill="#bfc8d4" stroke="#bfc8d4" stroke-width="0.8" stroke-linejoin="round"/>
<line x1="445.6" y1="214.9" x2="451.4" y2="212.5" stroke="#8f4020" stroke-width="1.4"/>
<polygon points="481.6,215.9 487.0,214.2 498.8,224.0 493.9,225.5" fill="#bfc8d4" stroke="#bfc8d4" stroke-width="0.8" stroke-linejoin="round"/>
<polygon points="439.8,217.5 445.6,214.9 460.4,223.7 455.3,225.9" fill="#bfc8d4" stroke="#bfc8d4" stroke-width="0.8" stroke-linejoin="round"/>
<line x1="439.8" y1="217.5" x2="445.6" y2="214.9" stroke="#8f4020" stroke-width="1.4"/>
<polygon points="476.2,217.6 481.6,215.9 493.9,225.5 489.1,227.1" fill="#bfc8d4" stroke="#bfc8d4" stroke-width="0.8" stroke-linejoin="round"/>
<polygon points="434.2,220.2 439.8,217.5 455.3,225.9 450.3,228.3" fill="#bfc8d4" stroke="#bfc8d4" stroke-width="0.8" stroke-linejoin="round"/>
<line x1="434.2" y1="220.2" x2="439.8" y2="217.5" stroke="#8f4020" stroke-width="1.4"/>
<polygon points="470.9,219.5 476.2,217.6 489.1,227.1 484.4,228.8" fill="#bfc8d4" stroke="#bfc8d4" stroke-width="0.8" stroke-linejoin="round"/>
<polygon points="465.6,221.5 470.9,219.5 484.4,228.8 479.8,230.5" fill="#bfc8d4" stroke="#bfc8d4" stroke-width="0.8" stroke-linejoin="round"/>
<line x1="465.6" y1="221.5" x2="479.8" y2="230.5" stroke="#7b8aa0" stroke-width="1.1"/>
<polygon points="428.7,223.0 434.2,220.2 450.3,228.3 445.5,230.8" fill="#bfc8d4" stroke="#bfc8d4" stroke-width="0.8" stroke-linejoin="round"/>
<line x1="428.7" y1="223.0" x2="434.2" y2="220.2" stroke="#8f4020" stroke-width="1.4"/>
<polygon points="498.8,224.0 518.9,218.5 529.6,228.6 510.6,233.9" fill="#bfc8d4" stroke="#bfc8d4" stroke-width="0.8" stroke-linejoin="round"/>
<polygon points="460.4,223.7 465.6,221.5 479.8,230.5 475.2,232.4" fill="#bfc8d4" stroke="#bfc8d4" stroke-width="0.8" stroke-linejoin="round"/>
<polygon points="423.4,225.9 428.7,223.0 445.5,230.8 440.9,233.4" fill="#bfc8d4" stroke="#bfc8d4" stroke-width="0.8" stroke-linejoin="round"/>
<line x1="423.4" y1="225.9" x2="428.7" y2="223.0" stroke="#8f4020" stroke-width="1.4"/>
<polygon points="455.3,225.9 460.4,223.7 475.2,232.4 470.8,234.3" fill="#bfc8d4" stroke="#bfc8d4" stroke-width="0.8" stroke-linejoin="round"/>
<polygon points="493.9,225.5 498.8,224.0 510.6,233.9 506.2,235.2" fill="#bfc8d4" stroke="#bfc8d4" stroke-width="0.8" stroke-linejoin="round"/>
<polygon points="489.1,227.1 493.9,225.5 506.2,235.2 502.0,236.6" fill="#bfc8d4" stroke="#bfc8d4" stroke-width="0.8" stroke-linejoin="round"/>
<polygon points="418.4,229.0 423.4,225.9 440.9,233.4 436.4,236.1" fill="#bfc8d4" stroke="#bfc8d4" stroke-width="0.8" stroke-linejoin="round"/>
<line x1="418.4" y1="229.0" x2="423.4" y2="225.9" stroke="#8f4020" stroke-width="1.4"/>
<polygon points="450.3,228.3 455.3,225.9 470.8,234.3 466.5,236.4" fill="#bfc8d4" stroke="#bfc8d4" stroke-width="0.8" stroke-linejoin="round"/>
<polygon points="484.4,228.8 489.1,227.1 502.0,236.6 497.9,238.0" fill="#bfc8d4" stroke="#bfc8d4" stroke-width="0.8" stroke-linejoin="round"/>
<polygon points="445.5,230.8 450.3,228.3 466.5,236.4 462.3,238.6" fill="#bfc8d4" stroke="#bfc8d4" stroke-width="0.8" stroke-linejoin="round"/>
<polygon points="413.5,232.2 418.4,229.0 436.4,236.1 432.0,239.0" fill="#bfc8d4" stroke="#bfc8d4" stroke-width="0.8" stroke-linejoin="round"/>
<line x1="413.5" y1="232.2" x2="418.4" y2="229.0" stroke="#8f4020" stroke-width="1.4"/>
<polygon points="479.8,230.5 484.4,228.8 497.9,238.0 493.9,239.5" fill="#bfc8d4" stroke="#bfc8d4" stroke-width="0.8" stroke-linejoin="round"/>
<line x1="479.8" y1="230.5" x2="493.9" y2="239.5" stroke="#7b8aa0" stroke-width="1.1"/>
<polygon points="475.2,232.4 479.8,230.5 493.9,239.5 490.1,241.1" fill="#bfc8d4" stroke="#bfc8d4" stroke-width="0.8" stroke-linejoin="round"/>
<polygon points="440.9,233.4 445.5,230.8 462.3,238.6 458.3,240.9" fill="#bfc8d4" stroke="#bfc8d4" stroke-width="0.8" stroke-linejoin="round"/>
<polygon points="510.6,233.9 529.6,228.6 540.4,238.7 522.4,243.7" fill="#bfc8d4" stroke="#bfc8d4" stroke-width="0.8" stroke-linejoin="round"/>
<line x1="522.4" y1="243.7" x2="540.4" y2="238.7" stroke="#8f4020" stroke-width="1.4"/>
<polygon points="408.9,235.5 413.5,232.2 432.0,239.0 427.9,241.9" fill="#bfc8d4" stroke="#bfc8d4" stroke-width="0.8" stroke-linejoin="round"/>
<line x1="408.9" y1="235.5" x2="427.9" y2="241.9" stroke="#7b8aa0" stroke-width="1.1"/>
<line x1="408.9" y1="235.5" x2="413.5" y2="232.2" stroke="#8f4020" stroke-width="1.4"/>
<polygon points="470.8,234.3 475.2,232.4 490.1,241.1 486.4,242.8" fill="#bfc8d4" stroke="#bfc8d4" stroke-width="0.8" stroke-linejoin="round"/>
<polygon points="436.4,236.1 440.9,233.4 458.3,240.9 454.3,243.2" fill="#bfc8d4" stroke="#bfc8d4" stroke-width="0.8" stroke-linejoin="round"/>
<polygon points="506.2,235.2 510.6,233.9 522.4,243.7 518.5,244.9" fill="#bfc8d4" stroke="#bfc8d4" stroke-width="0.8" stroke-linejoin="round"/>
<line x1="518.5" y1="244.9" x2="522.4" y2="243.7" stroke="#8f4020" stroke-width="1.4"/>
<polygon points="466.5,236.4 470.8,234.3 486.4,242.8 482.7,244.5" fill="#bfc8d4" stroke="#bfc8d4" stroke-width="0.8" stroke-linejoin="round"/>
<polygon points="404.5,238.9 408.9,235.5 427.9,241.9 423.9,245.0" fill="#bfc8d4" stroke="#bfc8d4" stroke-width="0.8" stroke-linejoin="round"/>
<line x1="404.5" y1="238.9" x2="408.9" y2="235.5" stroke="#8f4020" stroke-width="1.4"/>
<polygon points="502.0,236.6 506.2,235.2 518.5,244.9 514.9,246.1" fill="#bfc8d4" stroke="#bfc8d4" stroke-width="0.8" stroke-linejoin="round"/>
<line x1="514.9" y1="246.1" x2="518.5" y2="244.9" stroke="#8f4020" stroke-width="1.4"/>
<polygon points="432.0,239.0 436.4,236.1 454.3,243.2 450.5,245.8" fill="#bfc8d4" stroke="#bfc8d4" stroke-width="0.8" stroke-linejoin="round"/>
<polygon points="462.3,238.6 466.5,236.4 482.7,244.5 479.2,246.4" fill="#bfc8d4" stroke="#bfc8d4" stroke-width="0.8" stroke-linejoin="round"/>
<polygon points="497.9,238.0 502.0,236.6 514.9,246.1 511.4,247.3" fill="#bfc8d4" stroke="#bfc8d4" stroke-width="0.8" stroke-linejoin="round"/>
<line x1="511.4" y1="247.3" x2="514.9" y2="246.1" stroke="#8f4020" stroke-width="1.4"/>
<polygon points="493.9,239.5 497.9,238.0 511.4,247.3 508.1,248.6" fill="#bfc8d4" stroke="#bfc8d4" stroke-width="0.8" stroke-linejoin="round"/>
<line x1="493.9" y1="239.5" x2="508.1" y2="248.6" stroke="#7b8aa0" stroke-width="1.1"/>
<line x1="508.1" y1="248.6" x2="511.4" y2="247.3" stroke="#8f4020" stroke-width="1.4"/>
<polygon points="458.3,240.9 462.3,238.6 479.2,246.4 475.7,248.3" fill="#bfc8d4" stroke="#bfc8d4" stroke-width="0.8" stroke-linejoin="round"/>
<polygon points="400.3,242.3 404.5,238.9 423.9,245.0 420.0,248.1" fill="#bfc8d4" stroke="#bfc8d4" stroke-width="0.8" stroke-linejoin="round"/>
<line x1="400.3" y1="242.3" x2="404.5" y2="238.9" stroke="#8f4020" stroke-width="1.4"/>
<polygon points="427.9,241.9 432.0,239.0 450.5,245.8 446.8,248.4" fill="#bfc8d4" stroke="#bfc8d4" stroke-width="0.8" stroke-linejoin="round"/>
<line x1="427.9" y1="241.9" x2="446.8" y2="248.4" stroke="#7b8aa0" stroke-width="1.1"/>
<polygon points="490.1,241.1 493.9,239.5 508.1,248.6 504.9,249.9" fill="#bfc8d4" stroke="#bfc8d4" stroke-width="0.8" stroke-linejoin="round"/>
<line x1="504.9" y1="249.9" x2="508.1" y2="248.6" stroke="#8f4020" stroke-width="1.4"/>
<polygon points="454.3,243.2 458.3,240.9 475.7,248.3 472.3,250.4" fill="#bfc8d4" stroke="#bfc8d4" stroke-width="0.8" stroke-linejoin="round"/>
<polygon points="486.4,242.8 490.1,241.1 504.9,249.9 501.9,251.2" fill="#bfc8d4" stroke="#bfc8d4" stroke-width="0.8" stroke-linejoin="round"/>
<line x1="501.9" y1="251.2" x2="504.9" y2="249.9" stroke="#8f4020" stroke-width="1.4"/>
<polygon points="423.9,245.0 427.9,241.9 446.8,248.4 443.2,251.1" fill="#bfc8d4" stroke="#bfc8d4" stroke-width="0.8" stroke-linejoin="round"/>
<polygon points="396.3,245.9 400.3,242.3 420.0,248.1 416.3,251.4" fill="#bfc8d4" stroke="#bfc8d4" stroke-width="0.8" stroke-linejoin="round"/>
<line x1="396.3" y1="245.9" x2="400.3" y2="242.3" stroke="#8f4020" stroke-width="1.4"/>
<polygon points="482.7,244.5 486.4,242.8 501.9,251.2 498.9,252.6" fill="#bfc8d4" stroke="#bfc8d4" stroke-width="0.8" stroke-linejoin="round"/>
<line x1="498.9" y1="252.6" x2="501.9" y2="251.2" stroke="#8f4020" stroke-width="1.4"/>
<polygon points="450.5,245.8 454.3,243.2 472.3,250.4 469.0,252.5" fill="#bfc8d4" stroke="#bfc8d4" stroke-width="0.8" stroke-linejoin="round"/>
<polygon points="479.2,246.4 482.7,244.5 498.9,252.6 496.0,254.1" fill="#bfc8d4" stroke="#bfc8d4" stroke-width="0.8" stroke-linejoin="round"/>
<line x1="496.0" y1="254.1" x2="498.9" y2="252.6" stroke="#8f4020" stroke-width="1.4"/>
<polygon points="420.0,248.1 423.9,245.0 443.2,251.1 439.8,254.0" fill="#bfc8d4" stroke="#bfc8d4" stroke-width="0.8" stroke-linejoin="round"/>
<polygon points="392.4,249.4 396.3,245.9 416.3,251.4 412.8,254.7" fill="#bfc8d4" stroke="#bfc8d4" stroke-width="0.8" stroke-linejoin="round"/>
<polygon points="446.8,248.4 450.5,245.8 469.0,252.5 465.8,254.8" fill="#bfc8d4" stroke="#bfc8d4" stroke-width="0.8" stroke-linejoin="round"/>
<line x1="446.8" y1="248.4" x2="465.8" y2="254.8" stroke="#7b8aa0" stroke-width="1.1"/>
<line x1="392.4" y1="249.4" x2="396.3" y2="245.9" stroke="#8f4020" stroke-width="1.4"/>
<polygon points="475.7,248.3 479.2,246.4 496.0,254.1 493.1,255.8" fill="#bfc8d4" stroke="#bfc8d4" stroke-width="0.8" stroke-linejoin="round"/>
<line x1="493.1" y1="255.8" x2="496.0" y2="254.1" stroke="#8f4020" stroke-width="1.4"/>
<polygon points="416.3,251.4 420.0,248.1 439.8,254.0 436.4,256.9" fill="#bfc8d4" stroke="#bfc8d4" stroke-width="0.8" stroke-linejoin="round"/>
<polygon points="443.2,251.1 446.8,248.4 465.8,254.8 462.6,257.2" fill="#bfc8d4" stroke="#bfc8d4" stroke-width="0.8" stroke-linejoin="round"/>
<polygon points="472.3,250.4 475.7,248.3 493.1,255.8 490.3,257.5" fill="#bfc8d4" stroke="#bfc8d4" stroke-width="0.8" stroke-linejoin="round"/>
<line x1="490.3" y1="257.5" x2="493.1" y2="255.8" stroke="#8f4020" stroke-width="1.4"/>
<polygon points="469.0,252.5 472.3,250.4 490.3,257.5 487.5,259.3" fill="#bfc8d4" stroke="#bfc8d4" stroke-width="0.8" stroke-linejoin="round"/>
<line x1="487.5" y1="259.3" x2="490.3" y2="257.5" stroke="#8f4020" stroke-width="1.4"/>
<polygon points="439.8,254.0 443.2,251.1 462.6,257.2 459.5,259.8" fill="#bfc8d4" stroke="#bfc8d4" stroke-width="0.8" stroke-linejoin="round"/>
<polygon points="385.3,256.8 392.4,249.4 412.8,254.7 406.1,261.6" fill="#bfc8d4" stroke="#bfc8d4" stroke-width="0.8" stroke-linejoin="round"/>
<line x1="385.3" y1="256.8" x2="392.4" y2="249.4" stroke="#8f4020" stroke-width="1.4"/>
<polygon points="412.8,254.7 416.3,251.4 436.4,256.9 433.2,260.0" fill="#bfc8d4" stroke="#bfc8d4" stroke-width="0.8" stroke-linejoin="round"/>
<polygon points="465.8,254.8 469.0,252.5 487.5,259.3 484.7,261.3" fill="#bfc8d4" stroke="#bfc8d4" stroke-width="0.8" stroke-linejoin="round"/>
<line x1="465.8" y1="254.8" x2="484.7" y2="261.3" stroke="#7b8aa0" stroke-width="1.1"/>
<line x1="484.7" y1="261.3" x2="487.5" y2="259.3" stroke="#8f4020" stroke-width="1.4"/>
<polygon points="436.4,256.9 439.8,254.0 459.5,259.8 456.5,262.4" fill="#bfc8d4" stroke="#bfc8d4" stroke-width="0.8" stroke-linejoin="round"/>
<polygon points="462.6,257.2 465.8,254.8 484.7,261.3 482.0,263.4" fill="#bfc8d4" stroke="#bfc8d4" stroke-width="0.8" stroke-linejoin="round"/>
<line x1="482.0" y1="263.4" x2="484.7" y2="261.3" stroke="#8f4020" stroke-width="1.4"/>
<polygon points="406.1,261.6 412.8,254.7 433.2,260.0 427.0,266.3" fill="#bfc8d4" stroke="#bfc8d4" stroke-width="0.8" stroke-linejoin="round"/>
<polygon points="433.2,260.0 436.4,256.9 456.5,262.4 453.5,265.2" fill="#bfc8d4" stroke="#bfc8d4" stroke-width="0.8" stroke-linejoin="round"/>
<polygon points="459.5,259.8 462.6,257.2 482.0,263.4 479.3,265.6" fill="#bfc8d4" stroke="#bfc8d4" stroke-width="0.8" stroke-linejoin="round"/>
<line x1="479.3" y1="265.6" x2="482.0" y2="263.4" stroke="#8f4020" stroke-width="1.4"/>
<polygon points="378.8,264.3 385.3,256.8 406.1,261.6 400.0,268.7" fill="#bfc8d4" stroke="#bfc8d4" stroke-width="0.8" stroke-linejoin="round"/>
<line x1="378.8" y1="264.3" x2="400.0" y2="268.7" stroke="#7b8aa0" stroke-width="1.1"/>
<line x1="378.8" y1="264.3" x2="385.3" y2="256.8" stroke="#8f4020" stroke-width="1.4"/>
<polygon points="456.5,262.4 459.5,259.8 479.3,265.6 476.6,268.0" fill="#bfc8d4" stroke="#bfc8d4" stroke-width="0.8" stroke-linejoin="round"/>
<line x1="476.6" y1="268.0" x2="479.3" y2="265.6" stroke="#8f4020" stroke-width="1.4"/>
<polygon points="427.0,266.3 433.2,260.0 453.5,265.2 447.8,271.1" fill="#bfc8d4" stroke="#bfc8d4" stroke-width="0.8" stroke-linejoin="round"/>
<polygon points="453.5,265.2 456.5,262.4 476.6,268.0 473.9,270.5" fill="#bfc8d4" stroke="#bfc8d4" stroke-width="0.8" stroke-linejoin="round"/>
<line x1="473.9" y1="270.5" x2="476.6" y2="268.0" stroke="#8f4020" stroke-width="1.4"/>
<polygon points="400.0,268.7 406.1,261.6 427.0,266.3 421.1,273.0" fill="#bfc8d4" stroke="#bfc8d4" stroke-width="0.8" stroke-linejoin="round"/>
<line x1="400.0" y1="268.7" x2="421.1" y2="273.0" stroke="#7b8aa0" stroke-width="1.1"/>
<polygon points="372.7,271.9 378.8,264.3 400.0,268.7 394.2,275.9" fill="#bfc8d4" stroke="#bfc8d4" stroke-width="0.8" stroke-linejoin="round"/>
<line x1="372.7" y1="271.9" x2="378.8" y2="264.3" stroke="#8f4020" stroke-width="1.4"/>
<polygon points="447.8,271.1 453.5,265.2 473.9,270.5 468.6,275.9" fill="#bfc8d4" stroke="#bfc8d4" stroke-width="0.8" stroke-linejoin="round"/>
<line x1="468.6" y1="275.9" x2="473.9" y2="270.5" stroke="#8f4020" stroke-width="1.4"/>
<polygon points="421.1,273.0 427.0,266.3 447.8,271.1 442.3,277.4" fill="#bfc8d4" stroke="#bfc8d4" stroke-width="0.8" stroke-linejoin="round"/>
<line x1="421.1" y1="273.0" x2="442.3" y2="277.4" stroke="#7b8aa0" stroke-width="1.1"/>
<polygon points="394.2,275.9 400.0,268.7 421.1,273.0 415.6,280.0" fill="#bfc8d4" stroke="#bfc8d4" stroke-width="0.8" stroke-linejoin="round"/>
<polygon points="442.3,277.4 447.8,271.1 468.6,275.9 463.5,281.8" fill="#bfc8d4" stroke="#bfc8d4" stroke-width="0.8" stroke-linejoin="round"/>
<line x1="442.3" y1="277.4" x2="463.5" y2="281.8" stroke="#7b8aa0" stroke-width="1.1"/>
<line x1="463.5" y1="281.8" x2="468.6" y2="275.9" stroke="#8f4020" stroke-width="1.4"/>
<polygon points="367.1,279.5 372.7,271.9 394.2,275.9 388.7,283.4" fill="#bfc8d4" stroke="#bfc8d4" stroke-width="0.8" stroke-linejoin="round"/>
<line x1="367.1" y1="279.5" x2="372.7" y2="271.9" stroke="#8f4020" stroke-width="1.4"/>
<polygon points="415.6,280.0 421.1,273.0 442.3,277.4 437.0,284.1" fill="#bfc8d4" stroke="#bfc8d4" stroke-width="0.8" stroke-linejoin="round"/>
<polygon points="388.7,283.4 394.2,275.9 415.6,280.0 410.3,287.2" fill="#bfc8d4" stroke="#bfc8d4" stroke-width="0.8" stroke-linejoin="round"/>
<polygon points="437.0,284.1 442.3,277.4 463.5,281.8 458.4,288.2" fill="#bfc8d4" stroke="#bfc8d4" stroke-width="0.8" stroke-linejoin="round"/>
<line x1="458.4" y1="288.2" x2="463.5" y2="281.8" stroke="#8f4020" stroke-width="1.4"/>
<polygon points="410.3,287.2 415.6,280.0 437.0,284.1 431.8,291.1" fill="#bfc8d4" stroke="#bfc8d4" stroke-width="0.8" stroke-linejoin="round"/>
<polygon points="356.6,294.6 367.1,279.5 388.7,283.4 378.3,298.3" fill="#bfc8d4" stroke="#bfc8d4" stroke-width="0.8" stroke-linejoin="round"/>
<line x1="356.6" y1="294.6" x2="378.3" y2="298.3" stroke="#7b8aa0" stroke-width="1.1"/>
<line x1="356.6" y1="294.6" x2="367.1" y2="279.5" stroke="#8f4020" stroke-width="1.4"/>
<polygon points="431.8,291.1 437.0,284.1 458.4,288.2 453.4,295.0" fill="#bfc8d4" stroke="#bfc8d4" stroke-width="0.8" stroke-linejoin="round"/>
<line x1="453.4" y1="295.0" x2="458.4" y2="288.2" stroke="#8f4020" stroke-width="1.4"/>
<polygon points="378.3,298.3 388.7,283.4 410.3,287.2 400.0,302.0" fill="#bfc8d4" stroke="#bfc8d4" stroke-width="0.8" stroke-linejoin="round"/>
<line x1="378.3" y1="298.3" x2="400.0" y2="302.0" stroke="#7b8aa0" stroke-width="1.1"/>
<polygon points="400.0,302.0 410.3,287.2 431.8,291.1 421.7,305.7" fill="#bfc8d4" stroke="#bfc8d4" stroke-width="0.8" stroke-linejoin="round"/>
<line x1="400.0" y1="302.0" x2="421.7" y2="305.7" stroke="#7b8aa0" stroke-width="1.1"/>
<polygon points="421.7,305.7 431.8,291.1 453.4,295.0 443.4,309.4" fill="#bfc8d4" stroke="#bfc8d4" stroke-width="0.8" stroke-linejoin="round"/>
<line x1="421.7" y1="305.7" x2="443.4" y2="309.4" stroke="#7b8aa0" stroke-width="1.1"/>
<line x1="443.4" y1="309.4" x2="453.4" y2="295.0" stroke="#8f4020" stroke-width="1.4"/>
<polygon points="346.6,309.0 356.6,294.6 378.3,298.3 368.2,312.9" fill="#bfc8d4" stroke="#bfc8d4" stroke-width="0.8" stroke-linejoin="round"/>
<line x1="346.6" y1="309.0" x2="356.6" y2="294.6" stroke="#8f4020" stroke-width="1.4"/>
<polygon points="368.2,312.9 378.3,298.3 400.0,302.0 389.7,316.8" fill="#bfc8d4" stroke="#bfc8d4" stroke-width="0.8" stroke-linejoin="round"/>
<polygon points="389.7,316.8 400.0,302.0 421.7,305.7 411.3,320.6" fill="#bfc8d4" stroke="#bfc8d4" stroke-width="0.8" stroke-linejoin="round"/>
<polygon points="341.6,315.8 346.6,309.0 368.2,312.9 363.0,319.9" fill="#bfc8d4" stroke="#bfc8d4" stroke-width="0.8" stroke-linejoin="round"/>
<line x1="341.6" y1="315.8" x2="346.6" y2="309.0" stroke="#8f4020" stroke-width="1.4"/>
<polygon points="411.3,320.6 421.7,305.7 443.4,309.4 432.9,324.5" fill="#bfc8d4" stroke="#bfc8d4" stroke-width="0.8" stroke-linejoin="round"/>
<line x1="432.9" y1="324.5" x2="443.4" y2="309.4" stroke="#8f4020" stroke-width="1.4"/>
<polygon points="363.0,319.9 368.2,312.9 389.7,316.8 384.4,324.0" fill="#bfc8d4" stroke="#bfc8d4" stroke-width="0.8" stroke-linejoin="round"/>
<polygon points="336.5,322.2 341.6,315.8 363.0,319.9 357.7,326.6" fill="#bfc8d4" stroke="#bfc8d4" stroke-width="0.8" stroke-linejoin="round"/>
<line x1="336.5" y1="322.2" x2="357.7" y2="326.6" stroke="#7b8aa0" stroke-width="1.1"/>
<line x1="336.5" y1="322.2" x2="341.6" y2="315.8" stroke="#8f4020" stroke-width="1.4"/>
<polygon points="384.4,324.0 389.7,316.8 411.3,320.6 405.8,328.1" fill="#bfc8d4" stroke="#bfc8d4" stroke-width="0.8" stroke-linejoin="round"/>
<polygon points="357.7,326.6 363.0,319.9 384.4,324.0 378.9,331.0" fill="#bfc8d4" stroke="#bfc8d4" stroke-width="0.8" stroke-linejoin="round"/>
<line x1="357.7" y1="326.6" x2="378.9" y2="331.0" stroke="#7b8aa0" stroke-width="1.1"/>
<polygon points="405.8,328.1 411.3,320.6 432.9,324.5 427.3,332.1" fill="#bfc8d4" stroke="#bfc8d4" stroke-width="0.8" stroke-linejoin="round"/>
<line x1="427.3" y1="332.1" x2="432.9" y2="324.5" stroke="#8f4020" stroke-width="1.4"/>
<polygon points="331.4,328.1 336.5,322.2 357.7,326.6 352.2,332.9" fill="#bfc8d4" stroke="#bfc8d4" stroke-width="0.8" stroke-linejoin="round"/>
<line x1="331.4" y1="328.1" x2="336.5" y2="322.2" stroke="#8f4020" stroke-width="1.4"/>
<polygon points="378.9,331.0 384.4,324.0 405.8,328.1 400.0,335.3" fill="#bfc8d4" stroke="#bfc8d4" stroke-width="0.8" stroke-linejoin="round"/>
<line x1="378.9" y1="331.0" x2="400.0" y2="335.3" stroke="#7b8aa0" stroke-width="1.1"/>
<polygon points="352.2,332.9 357.7,326.6 378.9,331.0 373.0,337.7" fill="#bfc8d4" stroke="#bfc8d4" stroke-width="0.8" stroke-linejoin="round"/>
<polygon points="326.1,333.5 331.4,328.1 352.2,332.9 346.5,338.8" fill="#bfc8d4" stroke="#bfc8d4" stroke-width="0.8" stroke-linejoin="round"/>
<line x1="326.1" y1="333.5" x2="331.4" y2="328.1" stroke="#8f4020" stroke-width="1.4"/>
<polygon points="400.0,335.3 405.8,328.1 427.3,332.1 421.2,339.7" fill="#bfc8d4" stroke="#bfc8d4" stroke-width="0.8" stroke-linejoin="round"/>
<line x1="400.0" y1="335.3" x2="421.2" y2="339.7" stroke="#7b8aa0" stroke-width="1.1"/>
<line x1="421.2" y1="339.7" x2="427.3" y2="332.1" stroke="#8f4020" stroke-width="1.4"/>
<polygon points="373.0,337.7 378.9,331.0 400.0,335.3 393.9,342.4" fill="#bfc8d4" stroke="#bfc8d4" stroke-width="0.8" stroke-linejoin="round"/>
<polygon points="323.4,336.0 326.1,333.5 346.5,338.8 343.5,341.6" fill="#bfc8d4" stroke="#bfc8d4" stroke-width="0.8" stroke-linejoin="round"/>
<line x1="323.4" y1="336.0" x2="326.1" y2="333.5" stroke="#8f4020" stroke-width="1.4"/>
<polygon points="346.5,338.8 352.2,332.9 373.0,337.7 366.8,344.0" fill="#bfc8d4" stroke="#bfc8d4" stroke-width="0.8" stroke-linejoin="round"/>
<polygon points="320.7,338.4 323.4,336.0 343.5,341.6 340.5,344.2" fill="#bfc8d4" stroke="#bfc8d4" stroke-width="0.8" stroke-linejoin="round"/>
<line x1="320.7" y1="338.4" x2="323.4" y2="336.0" stroke="#8f4020" stroke-width="1.4"/>
<polygon points="393.9,342.4 400.0,335.3 421.2,339.7 414.7,347.2" fill="#bfc8d4" stroke="#bfc8d4" stroke-width="0.8" stroke-linejoin="round"/>
<line x1="414.7" y1="347.2" x2="421.2" y2="339.7" stroke="#8f4020" stroke-width="1.4"/>
<polygon points="318.0,340.6 320.7,338.4 340.5,344.2 337.4,346.8" fill="#bfc8d4" stroke="#bfc8d4" stroke-width="0.8" stroke-linejoin="round"/>
<line x1="318.0" y1="340.6" x2="320.7" y2="338.4" stroke="#8f4020" stroke-width="1.4"/>
<polygon points="343.5,341.6 346.5,338.8 366.8,344.0 363.6,347.1" fill="#bfc8d4" stroke="#bfc8d4" stroke-width="0.8" stroke-linejoin="round"/>
<polygon points="366.8,344.0 373.0,337.7 393.9,342.4 387.2,349.3" fill="#bfc8d4" stroke="#bfc8d4" stroke-width="0.8" stroke-linejoin="round"/>
<polygon points="315.3,342.7 318.0,340.6 337.4,346.8 334.2,349.2" fill="#bfc8d4" stroke="#bfc8d4" stroke-width="0.8" stroke-linejoin="round"/>
<line x1="315.3" y1="342.7" x2="334.2" y2="349.2" stroke="#7b8aa0" stroke-width="1.1"/>
<line x1="315.3" y1="342.7" x2="318.0" y2="340.6" stroke="#8f4020" stroke-width="1.4"/>
<polygon points="340.5,344.2 343.5,341.6 363.6,347.1 360.2,350.0" fill="#bfc8d4" stroke="#bfc8d4" stroke-width="0.8" stroke-linejoin="round"/>
<polygon points="312.5,344.7 315.3,342.7 334.2,349.2 331.0,351.5" fill="#bfc8d4" stroke="#bfc8d4" stroke-width="0.8" stroke-linejoin="round"/>
<line x1="312.5" y1="344.7" x2="315.3" y2="342.7" stroke="#8f4020" stroke-width="1.4"/>
<polygon points="363.6,347.1 366.8,344.0 387.2,349.3 383.7,352.6" fill="#bfc8d4" stroke="#bfc8d4" stroke-width="0.8" stroke-linejoin="round"/>
<polygon points="387.2,349.3 393.9,342.4 414.7,347.2 407.6,354.6" fill="#bfc8d4" stroke="#bfc8d4" stroke-width="0.8" stroke-linejoin="round"/>
<line x1="407.6" y1="354.6" x2="414.7" y2="347.2" stroke="#8f4020" stroke-width="1.4"/>
<polygon points="337.4,346.8 340.5,344.2 360.2,350.0 356.8,352.9" fill="#bfc8d4" stroke="#bfc8d4" stroke-width="0.8" stroke-linejoin="round"/>
<polygon points="309.7,346.5 312.5,344.7 331.0,351.5 327.7,353.6" fill="#bfc8d4" stroke="#bfc8d4" stroke-width="0.8" stroke-linejoin="round"/>
<line x1="309.7" y1="346.5" x2="312.5" y2="344.7" stroke="#8f4020" stroke-width="1.4"/>
<polygon points="306.9,348.2 309.7,346.5 327.7,353.6 324.3,355.7" fill="#bfc8d4" stroke="#bfc8d4" stroke-width="0.8" stroke-linejoin="round"/>
<line x1="306.9" y1="348.2" x2="309.7" y2="346.5" stroke="#8f4020" stroke-width="1.4"/>
<polygon points="334.2,349.2 337.4,346.8 356.8,352.9 353.2,355.6" fill="#bfc8d4" stroke="#bfc8d4" stroke-width="0.8" stroke-linejoin="round"/>
<line x1="334.2" y1="349.2" x2="353.2" y2="355.6" stroke="#7b8aa0" stroke-width="1.1"/>
<polygon points="360.2,350.0 363.6,347.1 383.7,352.6 380.0,355.9" fill="#bfc8d4" stroke="#bfc8d4" stroke-width="0.8" stroke-linejoin="round"/>
<polygon points="304.0,349.9 306.9,348.2 324.3,355.7 320.8,357.6" fill="#bfc8d4" stroke="#bfc8d4" stroke-width="0.8" stroke-linejoin="round"/>
<line x1="304.0" y1="349.9" x2="306.9" y2="348.2" stroke="#8f4020" stroke-width="1.4"/>
<polygon points="331.0,351.5 334.2,349.2 353.2,355.6 349.5,358.2" fill="#bfc8d4" stroke="#bfc8d4" stroke-width="0.8" stroke-linejoin="round"/>
<polygon points="383.7,352.6 387.2,349.3 407.6,354.6 403.7,358.1" fill="#bfc8d4" stroke="#bfc8d4" stroke-width="0.8" stroke-linejoin="round"/>
<line x1="403.7" y1="358.1" x2="407.6" y2="354.6" stroke="#8f4020" stroke-width="1.4"/>
<polygon points="356.8,352.9 360.2,350.0 380.0,355.9 376.1,359.0" fill="#bfc8d4" stroke="#bfc8d4" stroke-width="0.8" stroke-linejoin="round"/>
<polygon points="301.1,351.4 304.0,349.9 320.8,357.6 317.3,359.5" fill="#bfc8d4" stroke="#bfc8d4" stroke-width="0.8" stroke-linejoin="round"/>
<line x1="301.1" y1="351.4" x2="304.0" y2="349.9" stroke="#8f4020" stroke-width="1.4"/>
<polygon points="327.7,353.6 331.0,351.5 349.5,358.2 345.7,360.8" fill="#bfc8d4" stroke="#bfc8d4" stroke-width="0.8" stroke-linejoin="round"/>
<polygon points="298.1,352.8 301.1,351.4 317.3,359.5 313.6,361.2" fill="#bfc8d4" stroke="#bfc8d4" stroke-width="0.8" stroke-linejoin="round"/>
<line x1="298.1" y1="352.8" x2="301.1" y2="351.4" stroke="#8f4020" stroke-width="1.4"/>
<polygon points="380.0,355.9 383.7,352.6 403.7,358.1 399.7,361.7" fill="#bfc8d4" stroke="#bfc8d4" stroke-width="0.8" stroke-linejoin="round"/>
<line x1="399.7" y1="361.7" x2="403.7" y2="358.1" stroke="#8f4020" stroke-width="1.4"/>
<polygon points="353.2,355.6 356.8,352.9 376.1,359.0 372.1,362.1" fill="#bfc8d4" stroke="#bfc8d4" stroke-width="0.8" stroke-linejoin="round"/>
<line x1="353.2" y1="355.6" x2="372.1" y2="362.1" stroke="#7b8aa0" stroke-width="1.1"/>
<polygon points="295.1,354.1 298.1,352.8 313.6,361.2 309.9,362.9" fill="#bfc8d4" stroke="#bfc8d4" stroke-width="0.8" stroke-linejoin="round"/>
<line x1="295.1" y1="354.1" x2="298.1" y2="352.8" stroke="#8f4020" stroke-width="1.4"/>
<polygon points="324.3,355.7 327.7,353.6 345.7,360.8 341.7,363.1" fill="#bfc8d4" stroke="#bfc8d4" stroke-width="0.8" stroke-linejoin="round"/>
<polygon points="291.9,355.4 295.1,354.1 309.9,362.9 306.1,364.5" fill="#bfc8d4" stroke="#bfc8d4" stroke-width="0.8" stroke-linejoin="round"/>
<line x1="291.9" y1="355.4" x2="306.1" y2="364.5" stroke="#7b8aa0" stroke-width="1.1"/>
<line x1="291.9" y1="355.4" x2="295.1" y2="354.1" stroke="#8f4020" stroke-width="1.4"/>
<polygon points="349.5,358.2 353.2,355.6 372.1,362.1 368.0,365.0" fill="#bfc8d4" stroke="#bfc8d4" stroke-width="0.8" stroke-linejoin="round"/>
<polygon points="376.1,359.0 380.0,355.9 399.7,361.7 395.5,365.1" fill="#bfc8d4" stroke="#bfc8d4" stroke-width="0.8" stroke-linejoin="round"/>
<polygon points="320.8,357.6 324.3,355.7 341.7,363.1 337.7,365.4" fill="#bfc8d4" stroke="#bfc8d4" stroke-width="0.8" stroke-linejoin="round"/>
<line x1="395.5" y1="365.1" x2="399.7" y2="361.7" stroke="#8f4020" stroke-width="1.4"/>
<polygon points="288.6,356.7 291.9,355.4 306.1,364.5 302.1,366.0" fill="#bfc8d4" stroke="#bfc8d4" stroke-width="0.8" stroke-linejoin="round"/>
<line x1="288.6" y1="356.7" x2="291.9" y2="355.4" stroke="#8f4020" stroke-width="1.4"/>
<polygon points="285.1,357.9 288.6,356.7 302.1,366.0 298.0,367.4" fill="#bfc8d4" stroke="#bfc8d4" stroke-width="0.8" stroke-linejoin="round"/>
<line x1="285.1" y1="357.9" x2="288.6" y2="356.7" stroke="#8f4020" stroke-width="1.4"/>
<polygon points="317.3,359.5 320.8,357.6 337.7,365.4 333.5,367.6" fill="#bfc8d4" stroke="#bfc8d4" stroke-width="0.8" stroke-linejoin="round"/>
<polygon points="345.7,360.8 349.5,358.2 368.0,365.0 363.6,367.9" fill="#bfc8d4" stroke="#bfc8d4" stroke-width="0.8" stroke-linejoin="round"/>
<polygon points="281.5,359.1 285.1,357.9 298.0,367.4 293.8,368.8" fill="#bfc8d4" stroke="#bfc8d4" stroke-width="0.8" stroke-linejoin="round"/>
<line x1="281.5" y1="359.1" x2="285.1" y2="357.9" stroke="#8f4020" stroke-width="1.4"/>
<polygon points="372.1,362.1 376.1,359.0 395.5,365.1 391.1,368.5" fill="#bfc8d4" stroke="#bfc8d4" stroke-width="0.8" stroke-linejoin="round"/>
<line x1="372.1" y1="362.1" x2="391.1" y2="368.5" stroke="#7b8aa0" stroke-width="1.1"/>
<line x1="391.1" y1="368.5" x2="395.5" y2="365.1" stroke="#8f4020" stroke-width="1.4"/>
<polygon points="313.6,361.2 317.3,359.5 333.5,367.6 329.2,369.7" fill="#bfc8d4" stroke="#bfc8d4" stroke-width="0.8" stroke-linejoin="round"/>
<polygon points="277.6,360.3 281.5,359.1 293.8,368.8 289.4,370.1" fill="#bfc8d4" stroke="#bfc8d4" stroke-width="0.8" stroke-linejoin="round"/>
<line x1="277.6" y1="360.3" x2="281.5" y2="359.1" stroke="#8f4020" stroke-width="1.4"/>
<polygon points="341.7,363.1 345.7,360.8 363.6,367.9 359.1,370.6" fill="#bfc8d4" stroke="#bfc8d4" stroke-width="0.8" stroke-linejoin="round"/>
<polygon points="309.9,362.9 313.6,361.2 329.2,369.7 324.8,371.6" fill="#bfc8d4" stroke="#bfc8d4" stroke-width="0.8" stroke-linejoin="round"/>
<polygon points="368.0,365.0 372.1,362.1 391.1,368.5 386.5,371.8" fill="#bfc8d4" stroke="#bfc8d4" stroke-width="0.8" stroke-linejoin="round"/>
<line x1="386.5" y1="371.8" x2="391.1" y2="368.5" stroke="#8f4020" stroke-width="1.4"/>
<polygon points="259.6,365.3 277.6,360.3 289.4,370.1 270.4,375.4" fill="#bfc8d4" stroke="#bfc8d4" stroke-width="0.8" stroke-linejoin="round"/>
<line x1="259.6" y1="365.3" x2="270.4" y2="375.4" stroke="#7b8aa0" stroke-width="1.1"/>
<line x1="259.6" y1="365.3" x2="277.6" y2="360.3" stroke="#8f4020" stroke-width="1.4"/>
<polygon points="337.7,365.4 341.7,363.1 359.1,370.6 354.5,373.2" fill="#bfc8d4" stroke="#bfc8d4" stroke-width="0.8" stroke-linejoin="round"/>
<polygon points="306.1,364.5 309.9,362.9 324.8,371.6 320.2,373.5" fill="#bfc8d4" stroke="#bfc8d4" stroke-width="0.8" stroke-linejoin="round"/>
<line x1="306.1" y1="364.5" x2="320.2" y2="373.5" stroke="#7b8aa0" stroke-width="1.1"/>
<polygon points="302.1,366.0 306.1,364.5 320.2,373.5 315.6,375.2" fill="#bfc8d4" stroke="#bfc8d4" stroke-width="0.8" stroke-linejoin="round"/>
<polygon points="363.6,367.9 368.0,365.0 386.5,371.8 381.6,375.0" fill="#bfc8d4" stroke="#bfc8d4" stroke-width="0.8" stroke-linejoin="round"/>
<line x1="381.6" y1="375.0" x2="386.5" y2="371.8" stroke="#8f4020" stroke-width="1.4"/>
<polygon points="333.5,367.6 337.7,365.4 354.5,373.2 349.7,375.7" fill="#bfc8d4" stroke="#bfc8d4" stroke-width="0.8" stroke-linejoin="round"/>
<polygon points="298.0,367.4 302.1,366.0 315.6,375.2 310.9,376.9" fill="#bfc8d4" stroke="#bfc8d4" stroke-width="0.8" stroke-linejoin="round"/>
<polygon points="329.2,369.7 333.5,367.6 349.7,375.7 344.7,378.1" fill="#bfc8d4" stroke="#bfc8d4" stroke-width="0.8" stroke-linejoin="round"/>
<polygon points="359.1,370.6 363.6,367.9 381.6,375.0 376.6,378.1" fill="#bfc8d4" stroke="#bfc8d4" stroke-width="0.8" stroke-linejoin="round"/>
<polygon points="293.8,368.8 298.0,367.4 310.9,376.9 306.1,378.5" fill="#bfc8d4" stroke="#bfc8d4" stroke-width="0.8" stroke-linejoin="round"/>
<line x1="376.6" y1="378.1" x2="381.6" y2="375.0" stroke="#8f4020" stroke-width="1.4"/>
<polygon points="319.3,360.3 353.2,355.4 347.6,374.5" fill="#fbf9f5"/>
<polygon points="289.4,370.1 293.8,368.8 306.1,378.5 301.2,380.0" fill="#bfc8d4" stroke="#bfc8d4" stroke-width="0.8" stroke-linejoin="round"/>
<polygon points="324.8,371.6 329.2,369.7 344.7,378.1 339.6,380.3" fill="#bfc8d4" stroke="#bfc8d4" stroke-width="0.8" stroke-linejoin="round"/>
<polygon points="354.5,373.2 359.1,370.6 376.6,378.1 371.3,381.0" fill="#bfc8d4" stroke="#bfc8d4" stroke-width="0.8" stroke-linejoin="round"/>
<line x1="371.3" y1="381.0" x2="376.6" y2="378.1" stroke="#8f4020" stroke-width="1.4"/>
<polygon points="320.2,373.5 324.8,371.6 339.6,380.3 334.4,382.5" fill="#bfc8d4" stroke="#bfc8d4" stroke-width="0.8" stroke-linejoin="round"/>
<line x1="320.2" y1="373.5" x2="334.4" y2="382.5" stroke="#7b8aa0" stroke-width="1.1"/>
<polygon points="270.4,375.4 289.4,370.1 301.2,380.0 281.1,385.5" fill="#bfc8d4" stroke="#bfc8d4" stroke-width="0.8" stroke-linejoin="round"/>
<line x1="270.4" y1="375.4" x2="281.1" y2="385.5" stroke="#7b8aa0" stroke-width="1.1"/>
<polygon points="349.7,375.7 354.5,373.2 371.3,381.0 365.8,383.8" fill="#bfc8d4" stroke="#bfc8d4" stroke-width="0.8" stroke-linejoin="round"/>
<line x1="365.8" y1="383.8" x2="371.3" y2="381.0" stroke="#8f4020" stroke-width="1.4"/>
<polygon points="315.6,375.2 320.2,373.5 334.4,382.5 329.1,384.5" fill="#bfc8d4" stroke="#bfc8d4" stroke-width="0.8" stroke-linejoin="round"/>
<polygon points="310.9,376.9 315.6,375.2 329.1,384.5 323.8,386.4" fill="#bfc8d4" stroke="#bfc8d4" stroke-width="0.8" stroke-linejoin="round"/>
<polygon points="344.7,378.1 349.7,375.7 365.8,383.8 360.2,386.5" fill="#bfc8d4" stroke="#bfc8d4" stroke-width="0.8" stroke-linejoin="round"/>
<line x1="360.2" y1="386.5" x2="365.8" y2="383.8" stroke="#8f4020" stroke-width="1.4"/>
<polygon points="306.1,378.5 310.9,376.9 323.8,386.4 318.4,388.1" fill="#bfc8d4" stroke="#bfc8d4" stroke-width="0.8" stroke-linejoin="round"/>
<polygon points="339.6,380.3 344.7,378.1 360.2,386.5 354.4,389.1" fill="#bfc8d4" stroke="#bfc8d4" stroke-width="0.8" stroke-linejoin="round"/>
<line x1="354.4" y1="389.1" x2="360.2" y2="386.5" stroke="#8f4020" stroke-width="1.4"/>
<polygon points="301.2,380.0 306.1,378.5 318.4,388.1 313.0,389.8" fill="#bfc8d4" stroke="#bfc8d4" stroke-width="0.8" stroke-linejoin="round"/>
<polygon points="334.4,382.5 339.6,380.3 354.4,389.1 348.6,391.5" fill="#bfc8d4" stroke="#bfc8d4" stroke-width="0.8" stroke-linejoin="round"/>
<line x1="334.4" y1="382.5" x2="348.6" y2="391.5" stroke="#7b8aa0" stroke-width="1.1"/>
<line x1="348.6" y1="391.5" x2="354.4" y2="389.1" stroke="#8f4020" stroke-width="1.4"/>
<polygon points="290.9,371.1 324.8,371.4 311.5,388.3" fill="#fbf9f5"/>
<polygon points="281.1,385.5 301.2,380.0 313.0,389.8 291.9,395.6" fill="#bfc8d4" stroke="#bfc8d4" stroke-width="0.8" stroke-linejoin="round"/>
<line x1="281.1" y1="385.5" x2="291.9" y2="395.6" stroke="#7b8aa0" stroke-width="1.1"/>
<polygon points="329.1,384.5 334.4,382.5 348.6,391.5 342.6,393.7" fill="#bfc8d4" stroke="#bfc8d4" stroke-width="0.8" stroke-linejoin="round"/>
<line x1="342.6" y1="393.7" x2="348.6" y2="391.5" stroke="#8f4020" stroke-width="1.4"/>
<polygon points="323.8,386.4 329.1,384.5 342.6,393.7 336.6,395.8" fill="#bfc8d4" stroke="#bfc8d4" stroke-width="0.8" stroke-linejoin="round"/>
<line x1="336.6" y1="395.8" x2="342.6" y2="393.7" stroke="#8f4020" stroke-width="1.4"/>
<polygon points="318.4,388.1 323.8,386.4 336.6,395.8 330.7,397.8" fill="#bfc8d4" stroke="#bfc8d4" stroke-width="0.8" stroke-linejoin="round"/>
<line x1="330.7" y1="397.8" x2="336.6" y2="395.8" stroke="#8f4020" stroke-width="1.4"/>
<polygon points="313.0,389.8 318.4,388.1 330.7,397.8 324.8,399.6" fill="#bfc8d4" stroke="#bfc8d4" stroke-width="0.8" stroke-linejoin="round"/>
<line x1="324.8" y1="399.6" x2="330.7" y2="397.8" stroke="#8f4020" stroke-width="1.4"/>
<polygon points="291.9,395.6 313.0,389.8 324.8,399.6 302.7,405.8" fill="#bfc8d4" stroke="#bfc8d4" stroke-width="0.8" stroke-linejoin="round"/>
<line x1="291.9" y1="395.6" x2="302.7" y2="405.8" stroke="#7b8aa0" stroke-width="1.1"/>
<line x1="302.7" y1="405.8" x2="324.8" y2="399.6" stroke="#8f4020" stroke-width="1.4"/>
</svg>
