<svg xmlns="http://www.w3.org/2000/svg" width="800" height="540" viewBox="0 0 800 540" font-family="'Martian Mono', 'SF Mono', Menlo, ui-monospace, monospace">
<rect width="800" height="540" fill="#fbf9f5"/>
<text x="28" y="46" font-size="27" font-weight="600" fill="#2a1d17">turn3_left</text>
<text x="28" y="76" font-size="16" fill="#6f5a4e" font-family="Saira, system-ui, -apple-system, Helvetica, sans-serif">rayon 80 m · 3 × 3 cellules</text>
<polygon points="286.3,488.0 28.0,245.1 513.7,116.0 772.0,358.9" fill="#ece4d8"/>
<polygon points="314.7,441.5 250.1,380.8 371.6,348.5 436.1,409.2" fill="#dfd1bd"/>
<polygon points="250.1,380.8 185.6,320.1 307.0,287.8 371.6,348.5" fill="#dfd1bd"/>
<polygon points="185.6,320.1 121.0,259.4 242.4,227.1 307.0,287.8" fill="#dfd1bd"/>
<polygon points="436.1,409.2 371.6,348.5 493.0,316.2 557.6,376.9" fill="#dfd1bd"/>
<polygon points="371.6,348.5 307.0,287.8 428.4,255.5 493.0,316.2" fill="#dfd1bd"/>
<polygon points="307.0,287.8 242.4,227.1 363.9,194.8 428.4,255.5" fill="#dfd1bd"/>
<polygon points="557.6,376.9 493.0,316.2 614.4,283.9 679.0,344.6" fill="#dfd1bd"/>
<polygon points="493.0,316.2 428.4,255.5 549.9,223.2 614.4,283.9" fill="#dfd1bd"/>
<polygon points="428.4,255.5 363.9,194.8 485.3,162.5 549.9,223.2" fill="#dfd1bd"/>
<line x1="254.0" y1="457.6" x2="739.7" y2="328.5" stroke="#c9b7a1" stroke-width="1.2"/>
<line x1="189.4" y1="396.9" x2="675.1" y2="267.8" stroke="#c9b7a1" stroke-width="1.2"/>
<line x1="124.9" y1="336.2" x2="610.6" y2="207.1" stroke="#c9b7a1" stroke-width="1.2"/>
<line x1="60.3" y1="275.5" x2="546.0" y2="146.4" stroke="#c9b7a1" stroke-width="1.2"/>
<line x1="347.0" y1="471.9" x2="88.7" y2="229.0" stroke="#c9b7a1" stroke-width="1.2"/>
<line x1="468.4" y1="439.6" x2="210.1" y2="196.7" stroke="#c9b7a1" stroke-width="1.2"/>
<line x1="589.9" y1="407.3" x2="331.6" y2="164.4" stroke="#c9b7a1" stroke-width="1.2"/>
<line x1="711.3" y1="375.0" x2="453.0" y2="132.1" stroke="#c9b7a1" stroke-width="1.2"/>
<polygon points="262.2,392.2 275.3,388.5 288.1,384.5 300.4,380.1 312.2,375.5 323.6,370.6 334.4,365.4 344.8,359.9 354.5,354.2 363.7,348.2 372.3,342.1 380.3,335.7 387.6,329.1 394.2,322.3 400.2,315.4 405.4,308.4 410.0,301.2 413.8,294.0 416.9,286.6 419.2,279.2 420.8,271.7 421.7,264.2 421.8,256.7 421.2,249.1 419.8,241.7 417.6,234.2 414.7,226.8 411.1,219.5 406.8,212.3 402.5,206.3 397.7,200.3 392.4,194.5 386.6,188.7 462.5,168.6 470.0,175.9 476.8,183.4 482.9,191.1 488.4,198.9 494.0,208.2 498.7,217.5 502.4,227.0 505.1,236.6 506.9,246.2 507.7,255.9 507.6,265.6 506.5,275.2 504.4,284.8 501.4,294.4 497.4,303.8 492.5,313.2 486.7,322.4 479.9,331.5 472.3,340.3 463.7,349.0 454.3,357.5 444.1,365.7 433.1,373.6 421.3,381.3 408.7,388.6 395.4,395.7 381.4,402.3 366.8,408.7 351.6,414.6 335.8,420.2 319.4,425.4 302.6,430.1" fill="#2a1d17" fill-opacity="0.10"/>
<polygon points="450.6,180.6 443.6,173.6 462.5,168.6 470.0,175.9" fill="#f5f3ef" stroke="#f5f3ef" stroke-width="0.8" stroke-linejoin="round"/>
<line x1="470.0" y1="175.9" x2="462.5" y2="168.6" stroke="#a38659" stroke-width="4.5" stroke-linecap="round"/>
<polygon points="431.2,185.2 424.6,178.6 443.6,173.6 450.6,180.6" fill="#f5f3ef" stroke="#f5f3ef" stroke-width="0.8" stroke-linejoin="round"/>
<polygon points="457.0,187.7 450.6,180.6 470.0,175.9 476.8,183.4" fill="#f5f3ef" stroke="#f5f3ef" stroke-width="0.8" stroke-linejoin="round"/>
<line x1="454.8" y1="185.2" x2="474.4" y2="180.9" stroke="#b8aa96" stroke-width="1.1"/>
<line x1="476.8" y1="183.4" x2="470.0" y2="175.9" stroke="#a38659" stroke-width="4.5" stroke-linecap="round"/>
<polygon points="411.8,189.8 405.6,183.7 424.6,178.6 431.2,185.2" fill="#f5f3ef" stroke="#f5f3ef" stroke-width="0.8" stroke-linejoin="round"/>
<line x1="431.2" y1="185.2" x2="427.8" y2="181.8" stroke="#e2690f" stroke-width="1.6"/>
<polygon points="437.2,191.9 431.2,185.2 450.6,180.6 457.0,187.7" fill="#f5f3ef" stroke="#f5f3ef" stroke-width="0.8" stroke-linejoin="round"/>
<line x1="435.2" y1="189.6" x2="454.8" y2="185.2" stroke="#b8aa96" stroke-width="1.1"/>
<polygon points="392.4,194.5 386.6,188.7 405.6,183.7 411.8,189.8" fill="#f5f3ef" stroke="#f5f3ef" stroke-width="0.8" stroke-linejoin="round"/>
<line x1="392.4" y1="194.5" x2="386.6" y2="188.7" stroke="#a38659" stroke-width="4.5" stroke-linecap="round"/>
<polygon points="462.8,194.9 457.0,187.7 476.8,183.4 482.9,191.1" fill="#f5f3ef" stroke="#f5f3ef" stroke-width="0.8" stroke-linejoin="round"/>
<line x1="482.9" y1="191.1" x2="476.8" y2="183.4" stroke="#a38659" stroke-width="4.5" stroke-linecap="round"/>
<polygon points="417.5,196.1 411.8,189.8 431.2,185.2 437.2,191.9" fill="#f5f3ef" stroke="#f5f3ef" stroke-width="0.8" stroke-linejoin="round"/>
<line x1="415.5" y1="194.0" x2="435.2" y2="189.6" stroke="#b8aa96" stroke-width="1.1"/>
<line x1="435.2" y1="189.6" x2="431.2" y2="185.2" stroke="#e2690f" stroke-width="1.6"/>
<polygon points="442.7,198.7 437.2,191.9 457.0,187.7 462.8,194.9" fill="#f5f3ef" stroke="#f5f3ef" stroke-width="0.8" stroke-linejoin="round"/>
<polygon points="397.7,200.3 392.4,194.5 411.8,189.8 417.5,196.1" fill="#f5f3ef" stroke="#f5f3ef" stroke-width="0.8" stroke-linejoin="round"/>
<line x1="395.9" y1="198.3" x2="415.5" y2="194.0" stroke="#b8aa96" stroke-width="1.1"/>
<line x1="397.7" y1="200.3" x2="392.4" y2="194.5" stroke="#a38659" stroke-width="4.5" stroke-linecap="round"/>
<polygon points="468.0,202.3 462.8,194.9 482.9,191.1 488.4,198.9" fill="#f5f3ef" stroke="#f5f3ef" stroke-width="0.8" stroke-linejoin="round"/>
<line x1="468.0" y1="202.3" x2="488.4" y2="198.9" stroke="#b8aa96" stroke-width="1.1"/>
<line x1="488.4" y1="198.9" x2="482.9" y2="191.1" stroke="#a38659" stroke-width="4.5" stroke-linecap="round"/>
<polygon points="422.6,202.5 417.5,196.1 437.2,191.9 442.7,198.7" fill="#f5f3ef" stroke="#f5f3ef" stroke-width="0.8" stroke-linejoin="round"/>
<line x1="442.7" y1="198.7" x2="441.8" y2="197.5" stroke="#e2690f" stroke-width="1.6"/>
<polygon points="447.6,205.6 442.7,198.7 462.8,194.9 468.0,202.3" fill="#f5f3ef" stroke="#f5f3ef" stroke-width="0.8" stroke-linejoin="round"/>
<line x1="447.6" y1="205.6" x2="468.0" y2="202.3" stroke="#b8aa96" stroke-width="1.1"/>
<polygon points="402.5,206.3 397.7,200.3 417.5,196.1 422.6,202.5" fill="#f5f3ef" stroke="#f5f3ef" stroke-width="0.8" stroke-linejoin="round"/>
<line x1="402.5" y1="206.3" x2="397.7" y2="200.3" stroke="#a38659" stroke-width="4.5" stroke-linecap="round"/>
<polygon points="427.2,209.0 422.6,202.5 442.7,198.7 447.6,205.6" fill="#f5f3ef" stroke="#f5f3ef" stroke-width="0.8" stroke-linejoin="round"/>
<line x1="427.2" y1="209.0" x2="447.6" y2="205.6" stroke="#b8aa96" stroke-width="1.1"/>
<line x1="447.6" y1="205.6" x2="442.7" y2="198.7" stroke="#e2690f" stroke-width="1.6"/>
<polygon points="473.3,211.0 468.0,202.3 488.4,198.9 494.0,208.2" fill="#f5f3ef" stroke="#f5f3ef" stroke-width="0.8" stroke-linejoin="round"/>
<line x1="494.0" y1="208.2" x2="488.4" y2="198.9" stroke="#a38659" stroke-width="4.5" stroke-linecap="round"/>
<polygon points="406.8,212.3 402.5,206.3 422.6,202.5 427.2,209.0" fill="#f5f3ef" stroke="#f5f3ef" stroke-width="0.8" stroke-linejoin="round"/>
<line x1="406.8" y1="212.3" x2="427.2" y2="209.0" stroke="#b8aa96" stroke-width="1.1"/>
<line x1="406.8" y1="212.3" x2="402.5" y2="206.3" stroke="#a38659" stroke-width="4.5" stroke-linecap="round"/>
<polygon points="452.6,213.8 447.6,205.6 468.0,202.3 473.3,211.0" fill="#f5f3ef" stroke="#f5f3ef" stroke-width="0.8" stroke-linejoin="round"/>
<polygon points="431.8,216.7 427.2,209.0 447.6,205.6 452.6,213.8" fill="#f5f3ef" stroke="#f5f3ef" stroke-width="0.8" stroke-linejoin="round"/>
<polygon points="477.7,219.9 473.3,211.0 494.0,208.2 498.7,217.5" fill="#f5f3ef" stroke="#f5f3ef" stroke-width="0.8" stroke-linejoin="round"/>
<line x1="477.7" y1="219.9" x2="498.7" y2="217.5" stroke="#b8aa96" stroke-width="1.1"/>
<line x1="498.7" y1="217.5" x2="494.0" y2="208.2" stroke="#a38659" stroke-width="4.5" stroke-linecap="round"/>
<polygon points="411.1,219.5 406.8,212.3 427.2,209.0 431.8,216.7" fill="#f5f3ef" stroke="#f5f3ef" stroke-width="0.8" stroke-linejoin="round"/>
<line x1="411.1" y1="219.5" x2="406.8" y2="212.3" stroke="#a38659" stroke-width="4.5" stroke-linecap="round"/>
<polygon points="456.7,222.2 452.6,213.8 473.3,211.0 477.7,219.9" fill="#f5f3ef" stroke="#f5f3ef" stroke-width="0.8" stroke-linejoin="round"/>
<line x1="456.7" y1="222.2" x2="477.7" y2="219.9" stroke="#b8aa96" stroke-width="1.1"/>
<polygon points="435.7,224.5 431.8,216.7 452.6,213.8 456.7,222.2" fill="#f5f3ef" stroke="#f5f3ef" stroke-width="0.8" stroke-linejoin="round"/>
<line x1="435.7" y1="224.5" x2="456.7" y2="222.2" stroke="#b8aa96" stroke-width="1.1"/>
<line x1="456.7" y1="222.2" x2="452.6" y2="213.8" stroke="#e2690f" stroke-width="1.6"/>
<polygon points="414.7,226.8 411.1,219.5 431.8,216.7 435.7,224.5" fill="#f5f3ef" stroke="#f5f3ef" stroke-width="0.8" stroke-linejoin="round"/>
<line x1="414.7" y1="226.8" x2="435.7" y2="224.5" stroke="#b8aa96" stroke-width="1.1"/>
<line x1="414.7" y1="226.8" x2="411.1" y2="219.5" stroke="#a38659" stroke-width="4.5" stroke-linecap="round"/>
<polygon points="481.2,228.8 477.7,219.9 498.7,217.5 502.4,227.0" fill="#f5f3ef" stroke="#f5f3ef" stroke-width="0.8" stroke-linejoin="round"/>
<line x1="502.4" y1="227.0" x2="498.7" y2="217.5" stroke="#a38659" stroke-width="4.5" stroke-linecap="round"/>
<polygon points="460.0,230.6 456.7,222.2 477.7,219.9 481.2,228.8" fill="#f5f3ef" stroke="#f5f3ef" stroke-width="0.8" stroke-linejoin="round"/>
<polygon points="438.8,232.4 435.7,224.5 456.7,222.2 460.0,230.6" fill="#f5f3ef" stroke="#f5f3ef" stroke-width="0.8" stroke-linejoin="round"/>
<polygon points="417.6,234.2 414.7,226.8 435.7,224.5 438.8,232.4" fill="#f5f3ef" stroke="#f5f3ef" stroke-width="0.8" stroke-linejoin="round"/>
<line x1="417.6" y1="234.2" x2="414.7" y2="226.8" stroke="#a38659" stroke-width="4.5" stroke-linecap="round"/>
<polygon points="483.8,237.9 481.2,228.8 502.4,227.0 505.1,236.6" fill="#f5f3ef" stroke="#f5f3ef" stroke-width="0.8" stroke-linejoin="round"/>
<line x1="483.8" y1="237.9" x2="505.1" y2="236.6" stroke="#b8aa96" stroke-width="1.1"/>
<line x1="505.1" y1="236.6" x2="502.4" y2="227.0" stroke="#a38659" stroke-width="4.5" stroke-linecap="round"/>
<polygon points="462.4,239.1 460.0,230.6 481.2,228.8 483.8,237.9" fill="#f5f3ef" stroke="#f5f3ef" stroke-width="0.8" stroke-linejoin="round"/>
<line x1="462.4" y1="239.1" x2="483.8" y2="237.9" stroke="#b8aa96" stroke-width="1.1"/>
<polygon points="441.1,240.4 438.8,232.4 460.0,230.6 462.4,239.1" fill="#f5f3ef" stroke="#f5f3ef" stroke-width="0.8" stroke-linejoin="round"/>
<line x1="441.1" y1="240.4" x2="462.4" y2="239.1" stroke="#b8aa96" stroke-width="1.1"/>
<line x1="462.4" y1="239.1" x2="460.0" y2="230.6" stroke="#e2690f" stroke-width="1.6"/>
<polygon points="419.8,241.7 417.6,234.2 438.8,232.4 441.1,240.4" fill="#f5f3ef" stroke="#f5f3ef" stroke-width="0.8" stroke-linejoin="round"/>
<line x1="419.8" y1="241.7" x2="441.1" y2="240.4" stroke="#b8aa96" stroke-width="1.1"/>
<line x1="419.8" y1="241.7" x2="417.6" y2="234.2" stroke="#a38659" stroke-width="4.5" stroke-linecap="round"/>
<polygon points="485.5,247.0 483.8,237.9 505.1,236.6 506.9,246.2" fill="#f5f3ef" stroke="#f5f3ef" stroke-width="0.8" stroke-linejoin="round"/>
<line x1="506.9" y1="246.2" x2="505.1" y2="236.6" stroke="#a38659" stroke-width="4.5" stroke-linecap="round"/>
<polygon points="464.0,247.7 462.4,239.1 483.8,237.9 485.5,247.0" fill="#f5f3ef" stroke="#f5f3ef" stroke-width="0.8" stroke-linejoin="round"/>
<polygon points="442.6,248.4 441.1,240.4 462.4,239.1 464.0,247.7" fill="#f5f3ef" stroke="#f5f3ef" stroke-width="0.8" stroke-linejoin="round"/>
<polygon points="421.2,249.1 419.8,241.7 441.1,240.4 442.6,248.4" fill="#f5f3ef" stroke="#f5f3ef" stroke-width="0.8" stroke-linejoin="round"/>
<line x1="421.2" y1="249.1" x2="419.8" y2="241.7" stroke="#a38659" stroke-width="4.5" stroke-linecap="round"/>
<polygon points="486.3,256.1 485.5,247.0 506.9,246.2 507.7,255.9" fill="#f5f3ef" stroke="#f5f3ef" stroke-width="0.8" stroke-linejoin="round"/>
<line x1="486.3" y1="256.1" x2="507.7" y2="255.9" stroke="#b8aa96" stroke-width="1.1"/>
<line x1="507.7" y1="255.9" x2="506.9" y2="246.2" stroke="#a38659" stroke-width="4.5" stroke-linecap="round"/>
<polygon points="464.8,256.3 464.0,247.7 485.5,247.0 486.3,256.1" fill="#f5f3ef" stroke="#f5f3ef" stroke-width="0.8" stroke-linejoin="round"/>
<line x1="464.8" y1="256.3" x2="486.3" y2="256.1" stroke="#b8aa96" stroke-width="1.1"/>
<polygon points="443.3,256.5 442.6,248.4 464.0,247.7 464.8,256.3" fill="#f5f3ef" stroke="#f5f3ef" stroke-width="0.8" stroke-linejoin="round"/>
<line x1="443.3" y1="256.5" x2="464.8" y2="256.3" stroke="#b8aa96" stroke-width="1.1"/>
<line x1="464.8" y1="256.3" x2="464.0" y2="247.7" stroke="#e2690f" stroke-width="1.6"/>
<polygon points="421.8,256.7 421.2,249.1 442.6,248.4 443.3,256.5" fill="#f5f3ef" stroke="#f5f3ef" stroke-width="0.8" stroke-linejoin="round"/>
<line x1="421.8" y1="256.7" x2="443.3" y2="256.5" stroke="#b8aa96" stroke-width="1.1"/>
<line x1="421.8" y1="256.7" x2="421.2" y2="249.1" stroke="#a38659" stroke-width="4.5" stroke-linecap="round"/>
<polygon points="421.7,264.2 421.8,256.7 443.3,256.5 443.2,264.5" fill="#f5f3ef" stroke="#f5f3ef" stroke-width="0.8" stroke-linejoin="round"/>
<line x1="421.7" y1="264.2" x2="421.8" y2="256.7" stroke="#a38659" stroke-width="4.5" stroke-linecap="round"/>
<polygon points="443.2,264.5 443.3,256.5 464.8,256.3 464.7,264.9" fill="#f5f3ef" stroke="#f5f3ef" stroke-width="0.8" stroke-linejoin="round"/>
<polygon points="464.7,264.9 464.8,256.3 486.3,256.1 486.1,265.2" fill="#f5f3ef" stroke="#f5f3ef" stroke-width="0.8" stroke-linejoin="round"/>
<polygon points="486.1,265.2 486.3,256.1 507.7,255.9 507.6,265.6" fill="#f5f3ef" stroke="#f5f3ef" stroke-width="0.8" stroke-linejoin="round"/>
<line x1="507.6" y1="265.6" x2="507.7" y2="255.9" stroke="#a38659" stroke-width="4.5" stroke-linecap="round"/>
<polygon points="420.8,271.7 421.7,264.2 443.2,264.5 442.3,272.6" fill="#f5f3ef" stroke="#f5f3ef" stroke-width="0.8" stroke-linejoin="round"/>
<line x1="420.8" y1="271.7" x2="442.3" y2="272.6" stroke="#b8aa96" stroke-width="1.1"/>
<line x1="420.8" y1="271.7" x2="421.7" y2="264.2" stroke="#a38659" stroke-width="4.5" stroke-linecap="round"/>
<polygon points="442.3,272.6 443.2,264.5 464.7,264.9 463.7,273.4" fill="#f5f3ef" stroke="#f5f3ef" stroke-width="0.8" stroke-linejoin="round"/>
<line x1="442.3" y1="272.6" x2="463.7" y2="273.4" stroke="#b8aa96" stroke-width="1.1"/>
<polygon points="463.7,273.4 464.7,264.9 486.1,265.2 485.1,274.3" fill="#f5f3ef" stroke="#f5f3ef" stroke-width="0.8" stroke-linejoin="round"/>
<line x1="463.7" y1="273.4" x2="485.1" y2="274.3" stroke="#b8aa96" stroke-width="1.1"/>
<line x1="463.7" y1="273.4" x2="464.7" y2="264.9" stroke="#e2690f" stroke-width="1.6"/>
<polygon points="485.1,274.3 486.1,265.2 507.6,265.6 506.5,275.2" fill="#f5f3ef" stroke="#f5f3ef" stroke-width="0.8" stroke-linejoin="round"/>
<line x1="485.1" y1="274.3" x2="506.5" y2="275.2" stroke="#b8aa96" stroke-width="1.1"/>
<line x1="506.5" y1="275.2" x2="507.6" y2="265.6" stroke="#a38659" stroke-width="4.5" stroke-linecap="round"/>
<polygon points="419.2,279.2 420.8,271.7 442.3,272.6 440.5,280.6" fill="#f5f3ef" stroke="#f5f3ef" stroke-width="0.8" stroke-linejoin="round"/>
<line x1="419.2" y1="279.2" x2="420.8" y2="271.7" stroke="#a38659" stroke-width="4.5" stroke-linecap="round"/>
<polygon points="440.5,280.6 442.3,272.6 463.7,273.4 461.8,282.0" fill="#f5f3ef" stroke="#f5f3ef" stroke-width="0.8" stroke-linejoin="round"/>
<polygon points="461.8,282.0 463.7,273.4 485.1,274.3 483.1,283.4" fill="#f5f3ef" stroke="#f5f3ef" stroke-width="0.8" stroke-linejoin="round"/>
<polygon points="483.1,283.4 485.1,274.3 506.5,275.2 504.4,284.8" fill="#f5f3ef" stroke="#f5f3ef" stroke-width="0.8" stroke-linejoin="round"/>
<line x1="504.4" y1="284.8" x2="506.5" y2="275.2" stroke="#a38659" stroke-width="4.5" stroke-linecap="round"/>
<polygon points="416.9,286.6 419.2,279.2 440.5,280.6 438.0,288.5" fill="#f5f3ef" stroke="#f5f3ef" stroke-width="0.8" stroke-linejoin="round"/>
<line x1="416.9" y1="286.6" x2="438.0" y2="288.5" stroke="#b8aa96" stroke-width="1.1"/>
<line x1="416.9" y1="286.6" x2="419.2" y2="279.2" stroke="#a38659" stroke-width="4.5" stroke-linecap="round"/>
<polygon points="438.0,288.5 440.5,280.6 461.8,282.0 459.1,290.5" fill="#f5f3ef" stroke="#f5f3ef" stroke-width="0.8" stroke-linejoin="round"/>
<line x1="438.0" y1="288.5" x2="459.1" y2="290.5" stroke="#b8aa96" stroke-width="1.1"/>
<polygon points="459.1,290.5 461.8,282.0 483.1,283.4 480.3,292.4" fill="#f5f3ef" stroke="#f5f3ef" stroke-width="0.8" stroke-linejoin="round"/>
<line x1="459.1" y1="290.5" x2="480.3" y2="292.4" stroke="#b8aa96" stroke-width="1.1"/>
<line x1="459.1" y1="290.5" x2="461.8" y2="282.0" stroke="#e2690f" stroke-width="1.6"/>
<polygon points="480.3,292.4 483.1,283.4 504.4,284.8 501.4,294.4" fill="#f5f3ef" stroke="#f5f3ef" stroke-width="0.8" stroke-linejoin="round"/>
<line x1="480.3" y1="292.4" x2="501.4" y2="294.4" stroke="#b8aa96" stroke-width="1.1"/>
<line x1="501.4" y1="294.4" x2="504.4" y2="284.8" stroke="#a38659" stroke-width="4.5" stroke-linecap="round"/>
<polygon points="413.8,294.0 416.9,286.6 438.0,288.5 434.7,296.4" fill="#f5f3ef" stroke="#f5f3ef" stroke-width="0.8" stroke-linejoin="round"/>
<line x1="413.8" y1="294.0" x2="416.9" y2="286.6" stroke="#a38659" stroke-width="4.5" stroke-linecap="round"/>
<polygon points="434.7,296.4 438.0,288.5 459.1,290.5 455.6,298.9" fill="#f5f3ef" stroke="#f5f3ef" stroke-width="0.8" stroke-linejoin="round"/>
<polygon points="455.6,298.9 459.1,290.5 480.3,292.4 476.5,301.4" fill="#f5f3ef" stroke="#f5f3ef" stroke-width="0.8" stroke-linejoin="round"/>
<polygon points="476.5,301.4 480.3,292.4 501.4,294.4 497.4,303.8" fill="#f5f3ef" stroke="#f5f3ef" stroke-width="0.8" stroke-linejoin="round"/>
<line x1="497.4" y1="303.8" x2="501.4" y2="294.4" stroke="#a38659" stroke-width="4.5" stroke-linecap="round"/>
<polygon points="410.0,301.2 413.8,294.0 434.7,296.4 430.6,304.2" fill="#f5f3ef" stroke="#f5f3ef" stroke-width="0.8" stroke-linejoin="round"/>
<line x1="410.0" y1="301.2" x2="430.6" y2="304.2" stroke="#b8aa96" stroke-width="1.1"/>
<line x1="410.0" y1="301.2" x2="413.8" y2="294.0" stroke="#a38659" stroke-width="4.5" stroke-linecap="round"/>
<polygon points="430.6,304.2 434.7,296.4 455.6,298.9 451.2,307.2" fill="#f5f3ef" stroke="#f5f3ef" stroke-width="0.8" stroke-linejoin="round"/>
<line x1="430.6" y1="304.2" x2="451.2" y2="307.2" stroke="#b8aa96" stroke-width="1.1"/>
<polygon points="451.2,307.2 455.6,298.9 476.5,301.4 471.9,310.2" fill="#f5f3ef" stroke="#f5f3ef" stroke-width="0.8" stroke-linejoin="round"/>
<line x1="451.2" y1="307.2" x2="471.9" y2="310.2" stroke="#b8aa96" stroke-width="1.1"/>
<line x1="451.2" y1="307.2" x2="455.6" y2="298.9" stroke="#e2690f" stroke-width="1.6"/>
<polygon points="405.4,308.4 410.0,301.2 430.6,304.2 425.7,311.9" fill="#f5f3ef" stroke="#f5f3ef" stroke-width="0.8" stroke-linejoin="round"/>
<line x1="405.4" y1="308.4" x2="410.0" y2="301.2" stroke="#a38659" stroke-width="4.5" stroke-linecap="round"/>
<polygon points="471.9,310.2 476.5,301.4 497.4,303.8 492.5,313.2" fill="#f5f3ef" stroke="#f5f3ef" stroke-width="0.8" stroke-linejoin="round"/>
<line x1="471.9" y1="310.2" x2="492.5" y2="313.2" stroke="#b8aa96" stroke-width="1.1"/>
<line x1="492.5" y1="313.2" x2="497.4" y2="303.8" stroke="#a38659" stroke-width="4.5" stroke-linecap="round"/>
<polygon points="425.7,311.9 430.6,304.2 451.2,307.2 446.0,315.4" fill="#f5f3ef" stroke="#f5f3ef" stroke-width="0.8" stroke-linejoin="round"/>
<polygon points="446.0,315.4 451.2,307.2 471.9,310.2 466.4,318.9" fill="#f5f3ef" stroke="#f5f3ef" stroke-width="0.8" stroke-linejoin="round"/>
<polygon points="400.2,315.4 405.4,308.4 425.7,311.9 420.1,319.4" fill="#f5f3ef" stroke="#f5f3ef" stroke-width="0.8" stroke-linejoin="round"/>
<line x1="400.2" y1="315.4" x2="420.1" y2="319.4" stroke="#b8aa96" stroke-width="1.1"/>
<line x1="400.2" y1="315.4" x2="405.4" y2="308.4" stroke="#a38659" stroke-width="4.5" stroke-linecap="round"/>
<polygon points="466.4,318.9 471.9,310.2 492.5,313.2 486.7,322.4" fill="#f5f3ef" stroke="#f5f3ef" stroke-width="0.8" stroke-linejoin="round"/>
<line x1="486.7" y1="322.4" x2="492.5" y2="313.2" stroke="#a38659" stroke-width="4.5" stroke-linecap="round"/>
<polygon points="420.1,319.4 425.7,311.9 446.0,315.4 440.0,323.5" fill="#f5f3ef" stroke="#f5f3ef" stroke-width="0.8" stroke-linejoin="round"/>
<line x1="420.1" y1="319.4" x2="440.0" y2="323.5" stroke="#b8aa96" stroke-width="1.1"/>
<polygon points="394.2,322.3 400.2,315.4 420.1,319.4 413.7,326.8" fill="#f5f3ef" stroke="#f5f3ef" stroke-width="0.8" stroke-linejoin="round"/>
<line x1="394.2" y1="322.3" x2="400.2" y2="315.4" stroke="#a38659" stroke-width="4.5" stroke-linecap="round"/>
<polygon points="440.0,323.5 446.0,315.4 466.4,318.9 460.0,327.5" fill="#f5f3ef" stroke="#f5f3ef" stroke-width="0.8" stroke-linejoin="round"/>
<line x1="440.0" y1="323.5" x2="460.0" y2="327.5" stroke="#b8aa96" stroke-width="1.1"/>
<line x1="440.0" y1="323.5" x2="446.0" y2="315.4" stroke="#e2690f" stroke-width="1.6"/>
<polygon points="460.0,327.5 466.4,318.9 486.7,322.4 479.9,331.5" fill="#f5f3ef" stroke="#f5f3ef" stroke-width="0.8" stroke-linejoin="round"/>
<line x1="460.0" y1="327.5" x2="479.9" y2="331.5" stroke="#b8aa96" stroke-width="1.1"/>
<line x1="479.9" y1="331.5" x2="486.7" y2="322.4" stroke="#a38659" stroke-width="4.5" stroke-linecap="round"/>
<polygon points="413.7,326.8 420.1,319.4 440.0,323.5 433.2,331.3" fill="#f5f3ef" stroke="#f5f3ef" stroke-width="0.8" stroke-linejoin="round"/>
<polygon points="387.6,329.1 394.2,322.3 413.7,326.8 406.6,334.1" fill="#f5f3ef" stroke="#f5f3ef" stroke-width="0.8" stroke-linejoin="round"/>
<line x1="387.6" y1="329.1" x2="406.6" y2="334.1" stroke="#b8aa96" stroke-width="1.1"/>
<line x1="387.6" y1="329.1" x2="394.2" y2="322.3" stroke="#a38659" stroke-width="4.5" stroke-linecap="round"/>
<polygon points="433.2,331.3 440.0,323.5 460.0,327.5 452.7,335.8" fill="#f5f3ef" stroke="#f5f3ef" stroke-width="0.8" stroke-linejoin="round"/>
<polygon points="406.6,334.1 413.7,326.8 433.2,331.3 425.6,339.1" fill="#f5f3ef" stroke="#f5f3ef" stroke-width="0.8" stroke-linejoin="round"/>
<line x1="406.6" y1="334.1" x2="425.6" y2="339.1" stroke="#b8aa96" stroke-width="1.1"/>
<polygon points="452.7,335.8 460.0,327.5 479.9,331.5 472.3,340.3" fill="#f5f3ef" stroke="#f5f3ef" stroke-width="0.8" stroke-linejoin="round"/>
<line x1="472.3" y1="340.3" x2="479.9" y2="331.5" stroke="#a38659" stroke-width="4.5" stroke-linecap="round"/>
<polygon points="380.3,335.7 387.6,329.1 406.6,334.1 398.8,341.1" fill="#f5f3ef" stroke="#f5f3ef" stroke-width="0.8" stroke-linejoin="round"/>
<line x1="380.3" y1="335.7" x2="387.6" y2="329.1" stroke="#a38659" stroke-width="4.5" stroke-linecap="round"/>
<polygon points="425.6,339.1 433.2,331.3 452.7,335.8 444.7,344.0" fill="#f5f3ef" stroke="#f5f3ef" stroke-width="0.8" stroke-linejoin="round"/>
<line x1="425.6" y1="339.1" x2="444.7" y2="344.0" stroke="#b8aa96" stroke-width="1.1"/>
<line x1="425.6" y1="339.1" x2="433.2" y2="331.3" stroke="#e2690f" stroke-width="1.6"/>
<polygon points="398.8,341.1 406.6,334.1 425.6,339.1 417.3,346.6" fill="#f5f3ef" stroke="#f5f3ef" stroke-width="0.8" stroke-linejoin="round"/>
<polygon points="372.3,342.1 380.3,335.7 398.8,341.1 390.3,348.0" fill="#f5f3ef" stroke="#f5f3ef" stroke-width="0.8" stroke-linejoin="round"/>
<line x1="372.3" y1="342.1" x2="390.3" y2="348.0" stroke="#b8aa96" stroke-width="1.1"/>
<line x1="372.3" y1="342.1" x2="380.3" y2="335.7" stroke="#a38659" stroke-width="4.5" stroke-linecap="round"/>
<polygon points="444.7,344.0 452.7,335.8 472.3,340.3 463.7,349.0" fill="#f5f3ef" stroke="#f5f3ef" stroke-width="0.8" stroke-linejoin="round"/>
<line x1="444.7" y1="344.0" x2="463.7" y2="349.0" stroke="#b8aa96" stroke-width="1.1"/>
<line x1="463.7" y1="349.0" x2="472.3" y2="340.3" stroke="#a38659" stroke-width="4.5" stroke-linecap="round"/>
<polygon points="417.3,346.6 425.6,339.1 444.7,344.0 435.8,352.0" fill="#f5f3ef" stroke="#f5f3ef" stroke-width="0.8" stroke-linejoin="round"/>
<polygon points="390.3,348.0 398.8,341.1 417.3,346.6 408.2,353.9" fill="#f5f3ef" stroke="#f5f3ef" stroke-width="0.8" stroke-linejoin="round"/>
<line x1="390.3" y1="348.0" x2="408.2" y2="353.9" stroke="#b8aa96" stroke-width="1.1"/>
<polygon points="363.7,348.2 372.3,342.1 390.3,348.0 381.1,354.6" fill="#f5f3ef" stroke="#f5f3ef" stroke-width="0.8" stroke-linejoin="round"/>
<line x1="363.7" y1="348.2" x2="372.3" y2="342.1" stroke="#a38659" stroke-width="4.5" stroke-linecap="round"/>
<polygon points="435.8,352.0 444.7,344.0 463.7,349.0 454.3,357.5" fill="#f5f3ef" stroke="#f5f3ef" stroke-width="0.8" stroke-linejoin="round"/>
<line x1="454.3" y1="357.5" x2="463.7" y2="349.0" stroke="#a38659" stroke-width="4.5" stroke-linecap="round"/>
<polygon points="408.2,353.9 417.3,346.6 435.8,352.0 426.2,359.8" fill="#f5f3ef" stroke="#f5f3ef" stroke-width="0.8" stroke-linejoin="round"/>
<line x1="408.2" y1="353.9" x2="426.2" y2="359.8" stroke="#b8aa96" stroke-width="1.1"/>
<line x1="408.2" y1="353.9" x2="417.3" y2="346.6" stroke="#e2690f" stroke-width="1.6"/>
<polygon points="381.1,354.6 390.3,348.0 408.2,353.9 398.4,360.9" fill="#f5f3ef" stroke="#f5f3ef" stroke-width="0.8" stroke-linejoin="round"/>
<polygon points="354.5,354.2 363.7,348.2 381.1,354.6 371.2,361.0" fill="#f5f3ef" stroke="#f5f3ef" stroke-width="0.8" stroke-linejoin="round"/>
<line x1="354.5" y1="354.2" x2="371.2" y2="361.0" stroke="#b8aa96" stroke-width="1.1"/>
<line x1="354.5" y1="354.2" x2="363.7" y2="348.2" stroke="#a38659" stroke-width="4.5" stroke-linecap="round"/>
<polygon points="426.2,359.8 435.8,352.0 454.3,357.5 444.1,365.7" fill="#f5f3ef" stroke="#f5f3ef" stroke-width="0.8" stroke-linejoin="round"/>
<line x1="426.2" y1="359.8" x2="444.1" y2="365.7" stroke="#b8aa96" stroke-width="1.1"/>
<line x1="444.1" y1="365.7" x2="454.3" y2="357.5" stroke="#a38659" stroke-width="4.5" stroke-linecap="round"/>
<polygon points="398.4,360.9 408.2,353.9 426.2,359.8 415.7,367.3" fill="#f5f3ef" stroke="#f5f3ef" stroke-width="0.8" stroke-linejoin="round"/>
<polygon points="344.8,359.9 354.5,354.2 371.2,361.0 360.7,367.1" fill="#f5f3ef" stroke="#f5f3ef" stroke-width="0.8" stroke-linejoin="round"/>
<line x1="344.8" y1="359.9" x2="354.5" y2="354.2" stroke="#a38659" stroke-width="4.5" stroke-linecap="round"/>
<polygon points="371.2,361.0 381.1,354.6 398.4,360.9 387.9,367.7" fill="#f5f3ef" stroke="#f5f3ef" stroke-width="0.8" stroke-linejoin="round"/>
<line x1="371.2" y1="361.0" x2="387.9" y2="367.7" stroke="#b8aa96" stroke-width="1.1"/>
<polygon points="334.4,365.4 344.8,359.9 360.7,367.1 349.7,372.9" fill="#f5f3ef" stroke="#f5f3ef" stroke-width="0.8" stroke-linejoin="round"/>
<line x1="334.4" y1="365.4" x2="349.7" y2="372.9" stroke="#b8aa96" stroke-width="1.1"/>
<line x1="334.4" y1="365.4" x2="344.8" y2="359.9" stroke="#a38659" stroke-width="4.5" stroke-linecap="round"/>
<polygon points="415.7,367.3 426.2,359.8 444.1,365.7 433.1,373.6" fill="#f5f3ef" stroke="#f5f3ef" stroke-width="0.8" stroke-linejoin="round"/>
<line x1="433.1" y1="373.6" x2="444.1" y2="365.7" stroke="#a38659" stroke-width="4.5" stroke-linecap="round"/>
<polygon points="360.7,367.1 371.2,361.0 387.9,367.7 376.7,374.3" fill="#f5f3ef" stroke="#f5f3ef" stroke-width="0.8" stroke-linejoin="round"/>
<polygon points="387.9,367.7 398.4,360.9 415.7,367.3 404.6,374.5" fill="#f5f3ef" stroke="#f5f3ef" stroke-width="0.8" stroke-linejoin="round"/>
<line x1="387.9" y1="367.7" x2="404.6" y2="374.5" stroke="#b8aa96" stroke-width="1.1"/>
<line x1="387.9" y1="367.7" x2="398.4" y2="360.9" stroke="#e2690f" stroke-width="1.6"/>
<polygon points="323.6,370.6 334.4,365.4 349.7,372.9 338.0,378.5" fill="#f5f3ef" stroke="#f5f3ef" stroke-width="0.8" stroke-linejoin="round"/>
<line x1="323.6" y1="370.6" x2="334.4" y2="365.4" stroke="#a38659" stroke-width="4.5" stroke-linecap="round"/>
<polygon points="349.7,372.9 360.7,367.1 376.7,374.3 364.9,380.5" fill="#f5f3ef" stroke="#f5f3ef" stroke-width="0.8" stroke-linejoin="round"/>
<line x1="349.7" y1="372.9" x2="364.9" y2="380.5" stroke="#b8aa96" stroke-width="1.1"/>
<polygon points="404.6,374.5 415.7,367.3 433.1,373.6 421.3,381.3" fill="#f5f3ef" stroke="#f5f3ef" stroke-width="0.8" stroke-linejoin="round"/>
<line x1="404.6" y1="374.5" x2="421.3" y2="381.3" stroke="#b8aa96" stroke-width="1.1"/>
<line x1="421.3" y1="381.3" x2="433.1" y2="373.6" stroke="#a38659" stroke-width="4.5" stroke-linecap="round"/>
<polygon points="376.7,374.3 387.9,367.7 404.6,374.5 392.7,381.4" fill="#f5f3ef" stroke="#f5f3ef" stroke-width="0.8" stroke-linejoin="round"/>
<polygon points="312.2,375.5 323.6,370.6 338.0,378.5 325.9,383.8" fill="#f5f3ef" stroke="#f5f3ef" stroke-width="0.8" stroke-linejoin="round"/>
<line x1="312.2" y1="375.5" x2="325.9" y2="383.8" stroke="#b8aa96" stroke-width="1.1"/>
<line x1="312.2" y1="375.5" x2="323.6" y2="370.6" stroke="#a38659" stroke-width="4.5" stroke-linecap="round"/>
<polygon points="338.0,378.5 349.7,372.9 364.9,380.5 352.5,386.5" fill="#f5f3ef" stroke="#f5f3ef" stroke-width="0.8" stroke-linejoin="round"/>
<polygon points="364.9,380.5 376.7,374.3 392.7,381.4 380.2,388.1" fill="#f5f3ef" stroke="#f5f3ef" stroke-width="0.8" stroke-linejoin="round"/>
<line x1="364.9" y1="380.5" x2="380.2" y2="388.1" stroke="#b8aa96" stroke-width="1.1"/>
<line x1="364.9" y1="380.5" x2="376.7" y2="374.3" stroke="#e2690f" stroke-width="1.6"/>
<polygon points="392.7,381.4 404.6,374.5 421.3,381.3 408.7,388.6" fill="#f5f3ef" stroke="#f5f3ef" stroke-width="0.8" stroke-linejoin="round"/>
<line x1="408.7" y1="388.6" x2="421.3" y2="381.3" stroke="#a38659" stroke-width="4.5" stroke-linecap="round"/>
<polygon points="300.4,380.1 312.2,375.5 325.9,383.8 313.2,388.7" fill="#f5f3ef" stroke="#f5f3ef" stroke-width="0.8" stroke-linejoin="round"/>
<line x1="300.4" y1="380.1" x2="312.2" y2="375.5" stroke="#a38659" stroke-width="4.5" stroke-linecap="round"/>
<polygon points="325.9,383.8 338.0,378.5 352.5,386.5 339.5,392.1" fill="#f5f3ef" stroke="#f5f3ef" stroke-width="0.8" stroke-linejoin="round"/>
<line x1="325.9" y1="383.8" x2="339.5" y2="392.1" stroke="#b8aa96" stroke-width="1.1"/>
<polygon points="288.1,384.5 300.4,380.1 313.2,388.7 300.0,393.4" fill="#f5f3ef" stroke="#f5f3ef" stroke-width="0.8" stroke-linejoin="round"/>
<line x1="288.1" y1="384.5" x2="300.0" y2="393.4" stroke="#b8aa96" stroke-width="1.1"/>
<line x1="288.1" y1="384.5" x2="300.4" y2="380.1" stroke="#a38659" stroke-width="4.5" stroke-linecap="round"/>
<polygon points="352.5,386.5 364.9,380.5 380.2,388.1 367.0,394.4" fill="#f5f3ef" stroke="#f5f3ef" stroke-width="0.8" stroke-linejoin="round"/>
<polygon points="380.2,388.1 392.7,381.4 408.7,388.6 395.4,395.7" fill="#f5f3ef" stroke="#f5f3ef" stroke-width="0.8" stroke-linejoin="round"/>
<line x1="380.2" y1="388.1" x2="395.4" y2="395.7" stroke="#b8aa96" stroke-width="1.1"/>
<line x1="395.4" y1="395.7" x2="408.7" y2="388.6" stroke="#a38659" stroke-width="4.5" stroke-linecap="round"/>
<polygon points="313.2,388.7 325.9,383.8 339.5,392.1 326.0,397.4" fill="#f5f3ef" stroke="#f5f3ef" stroke-width="0.8" stroke-linejoin="round"/>
<polygon points="275.3,388.5 288.1,384.5 300.0,393.4 286.4,397.7" fill="#f5f3ef" stroke="#f5f3ef" stroke-width="0.8" stroke-linejoin="round"/>
<line x1="275.3" y1="388.5" x2="288.1" y2="384.5" stroke="#a38659" stroke-width="4.5" stroke-linecap="round"/>
<polygon points="339.5,392.1 352.5,386.5 367.0,394.4 353.2,400.4" fill="#f5f3ef" stroke="#f5f3ef" stroke-width="0.8" stroke-linejoin="round"/>
<line x1="339.5" y1="392.1" x2="353.2" y2="400.4" stroke="#b8aa96" stroke-width="1.1"/>
<line x1="339.5" y1="392.1" x2="352.5" y2="386.5" stroke="#e2690f" stroke-width="1.6"/>
<polygon points="262.2,392.2 275.3,388.5 286.4,397.7 272.3,401.7" fill="#f5f3ef" stroke="#f5f3ef" stroke-width="0.8" stroke-linejoin="round"/>
<line x1="262.2" y1="392.2" x2="272.3" y2="401.7" stroke="#b8aa96" stroke-width="1.1"/>
<line x1="262.2" y1="392.2" x2="275.3" y2="388.5" stroke="#a38659" stroke-width="4.5" stroke-linecap="round"/>
<polygon points="367.0,394.4 380.2,388.1 395.4,395.7 381.4,402.3" fill="#f5f3ef" stroke="#f5f3ef" stroke-width="0.8" stroke-linejoin="round"/>
<line x1="381.4" y1="402.3" x2="395.4" y2="395.7" stroke="#a38659" stroke-width="4.5" stroke-linecap="round"/>
<polygon points="300.0,393.4 313.2,388.7 326.0,397.4 311.9,402.3" fill="#f5f3ef" stroke="#f5f3ef" stroke-width="0.8" stroke-linejoin="round"/>
<line x1="300.0" y1="393.4" x2="311.9" y2="402.3" stroke="#b8aa96" stroke-width="1.1"/>
<polygon points="326.0,397.4 339.5,392.1 353.2,400.4 338.8,406.0" fill="#f5f3ef" stroke="#f5f3ef" stroke-width="0.8" stroke-linejoin="round"/>
<polygon points="286.4,397.7 300.0,393.4 311.9,402.3 297.4,406.9" fill="#f5f3ef" stroke="#f5f3ef" stroke-width="0.8" stroke-linejoin="round"/>
<polygon points="353.2,400.4 367.0,394.4 381.4,402.3 366.8,408.7" fill="#f5f3ef" stroke="#f5f3ef" stroke-width="0.8" stroke-linejoin="round"/>
<line x1="353.2" y1="400.4" x2="366.8" y2="408.7" stroke="#b8aa96" stroke-width="1.1"/>
<line x1="366.8" y1="408.7" x2="381.4" y2="402.3" stroke="#a38659" stroke-width="4.5" stroke-linecap="round"/>
<polygon points="313.7,392.4 339.5,391.9 331.3,404.6" fill="#e2690f"/>
<polygon points="311.9,402.3 326.0,397.4 338.8,406.0 323.9,411.3" fill="#f5f3ef" stroke="#f5f3ef" stroke-width="0.8" stroke-linejoin="round"/>
<line x1="311.9" y1="402.3" x2="323.9" y2="411.3" stroke="#b8aa96" stroke-width="1.1"/>
<line x1="311.9" y1="402.3" x2="326.0" y2="397.4" stroke="#e2690f" stroke-width="1.6"/>
<polygon points="272.3,401.7 286.4,397.7 297.4,406.9 282.4,411.1" fill="#f5f3ef" stroke="#f5f3ef" stroke-width="0.8" stroke-linejoin="round"/>
<line x1="272.3" y1="401.7" x2="282.4" y2="411.1" stroke="#b8aa96" stroke-width="1.1"/>
<polygon points="338.8,406.0 353.2,400.4 366.8,408.7 351.6,414.6" fill="#f5f3ef" stroke="#f5f3ef" stroke-width="0.8" stroke-linejoin="round"/>
<line x1="351.6" y1="414.6" x2="366.8" y2="408.7" stroke="#a38659" stroke-width="4.5" stroke-linecap="round"/>
<polygon points="297.4,406.9 311.9,402.3 323.9,411.3 308.4,416.1" fill="#f5f3ef" stroke="#f5f3ef" stroke-width="0.8" stroke-linejoin="round"/>
<polygon points="289.7,400.3 315.5,400.9 305.1,413.2" fill="#e2690f"/>
<polygon points="323.9,411.3 338.8,406.0 351.6,414.6 335.8,420.2" fill="#f5f3ef" stroke="#f5f3ef" stroke-width="0.8" stroke-linejoin="round"/>
<line x1="323.9" y1="411.3" x2="335.8" y2="420.2" stroke="#b8aa96" stroke-width="1.1"/>
<line x1="335.8" y1="420.2" x2="351.6" y2="414.6" stroke="#a38659" stroke-width="4.5" stroke-linecap="round"/>
<polygon points="282.4,411.1 297.4,406.9 308.4,416.1 292.5,420.6" fill="#f5f3ef" stroke="#f5f3ef" stroke-width="0.8" stroke-linejoin="round"/>
<line x1="282.4" y1="411.1" x2="292.5" y2="420.6" stroke="#b8aa96" stroke-width="1.1"/>
<line x1="282.4" y1="411.1" x2="297.4" y2="406.9" stroke="#e2690f" stroke-width="1.6"/>
<polygon points="308.4,416.1 323.9,411.3 335.8,420.2 319.4,425.4" fill="#f5f3ef" stroke="#f5f3ef" stroke-width="0.8" stroke-linejoin="round"/>
<line x1="319.4" y1="425.4" x2="335.8" y2="420.2" stroke="#a38659" stroke-width="4.5" stroke-linecap="round"/>
<polygon points="292.5,420.6 308.4,416.1 319.4,425.4 302.6,430.1" fill="#f5f3ef" stroke="#f5f3ef" stroke-width="0.8" stroke-linejoin="round"/>
<line x1="292.5" y1="420.6" x2="302.6" y2="430.1" stroke="#b8aa96" stroke-width="1.1"/>
<line x1="302.6" y1="430.1" x2="319.4" y2="425.4" stroke="#a38659" stroke-width="4.5" stroke-linecap="round"/>
</svg>
